<?xml version="1.0" encoding="UTF-8" standalone="no"?>
<!-- Created with Inkscape (http://www.inkscape.org/) -->

<svg
   width="1920"
   height="1080"
   viewBox="0 0 1920 1080"
   version="1.1"
   id="svg5"
   inkscape:version="1.1.1 (3bf5ae0d25, 2021-09-20)"
   sodipodi:docname="01.svg"
   xmlns:inkscape="http://www.inkscape.org/namespaces/inkscape"
   xmlns:sodipodi="http://sodipodi.sourceforge.net/DTD/sodipodi-0.dtd"
   xmlns="http://www.w3.org/2000/svg"
   xmlns:svg="http://www.w3.org/2000/svg">
  <sodipodi:namedview
     id="namedview7"
     pagecolor="#ffffff"
     bordercolor="#666666"
     borderopacity="1.0"
     inkscape:pageshadow="2"
     inkscape:pageopacity="0.0"
     inkscape:pagecheckerboard="0"
     inkscape:document-units="px"
     showgrid="false"
     inkscape:zoom="0.48148148"
     inkscape:cx="960.57692"
     inkscape:cy="707.19231"
     inkscape:window-width="1366"
     inkscape:window-height="705"
     inkscape:window-x="-8"
     inkscape:window-y="-8"
     inkscape:window-maximized="1"
     inkscape:current-layer="layer1" />
  <defs
     id="defs2" />
  <g
     inkscape:label="Capa 1"
     inkscape:groupmode="layer"
     id="layer1">
    <ellipse
       style="fill:#ff0000;stroke-width:0.760778"
       id="path31"
       cx="686.72156"
       cy="432.19174"
       rx="130.78665"
       ry="168.67422" />
    <ellipse
       style="fill:#2b0000;stroke-width:0.760778"
       id="path33"
       cx="838.37842"
       cy="329.91058"
       rx="114.09048"
       ry="147.14134" />
    <ellipse
       style="fill:#2b0000;stroke-width:0.760778"
       id="path57"
       cx="549.67383"
       cy="300.30286"
       rx="80.002472"
       ry="103.17838" />
    <path
       style="fill:#2b0000;stroke-width:0.760778"
       id="path146"
       d="m 667.41403,438.29813 c -6.68901,12.90321 -15.58279,23.08118 -25.17465,32.24758 -6.16029,5.947 -16.19987,11.58164 -27.88548,17.03355 -8.87522,4.4642 -18.20486,7.06783 -27.56628,9.14571 -7.17346,1.7498 -14.40365,3.06601 -21.6156,4.51988 -6.78989,1.38637 -13.64191,2.07485 -20.5055,2.42248 -6.62131,0.53397 -13.21238,-0.17924 -19.76893,-1.31683 -5.52808,-0.34214 -6.40454,-1.03663 -12.76735,7.125 -0.76348,0.97932 0.66364,2.7113 1.34219,3.78963 1.23617,1.96443 2.82658,3.5118 4.30178,5.17944 6.31653,7.1405 7.66214,8.14139 14.8062,15.05987 15.08771,13.9063 30.42865,27.40126 46.36921,39.63649 6.62221,5.20156 13.622,9.39882 21.24666,11.31636 3.81402,0.46508 7.56564,0.86677 11.33246,1.80204 8.84727,1.84483 17.88274,1.81296 26.82291,1.705 12.84785,-1.10263 25.30726,-5.46351 37.34542,-11.1473 8.0941,-3.42296 15.81092,-7.96319 23.27946,-13.20989 8.1898,-6.06878 16.73998,-11.47442 23.79483,-19.66861 5.05518,-6.00733 5.31121,-8.18514 1.82603,-15.94084 -3.12818,-6.05903 -7.55432,-10.92597 -10.26514,-17.36827 -0.48621,-1.1555 -0.83926,-2.39625 -1.25889,-3.59438 -2.33425,-7.29957 -3.83394,-14.92872 -4.69752,-22.72769 -0.78159,-6.15897 -1.9182,-12.32018 -3.98056,-17.97959 -2.20657,-6.1526 -5.24995,-11.67592 -9.06271,-16.32195 -2.89088,-3.14641 -6.4514,-4.88835 -9.83903,-6.92596 -0.56191,-0.31871 -1.12381,-0.63742 -1.68573,-0.95613 0,0 -8.27939,7.10831 -8.27939,7.10831 v 0 c 0.55574,0.30745 1.11149,0.61491 1.66723,0.92236 3.29631,2.04122 6.80969,3.63772 9.7241,6.55645 3.79186,4.44985 6.73429,9.86928 8.87425,15.88532 1.9477,5.58973 3.11229,11.60825 3.86183,17.65174 0.9421,7.88817 2.53721,15.60289 4.86807,23.00901 0.44142,1.25529 0.81094,2.5569 1.32424,3.76586 2.72233,6.41173 7.16321,11.21665 10.24281,17.29735 3.33197,7.76485 2.21991,8.66312 -2.46918,14.42242 -1.63873,1.83881 -2.24706,2.60301 -4.05127,4.27482 -0.84713,0.78496 -3.54684,2.80762 -2.59689,2.25192 1.93126,-1.12976 3.69017,-2.69759 5.56086,-3.9858 2.02342,-1.3934 -8.19061,5.96738 -5.9648,4.42558 -7.46456,5.37078 -15.19239,10.02488 -23.32225,13.49045 -11.97333,5.8033 -24.35536,10.36351 -37.18029,11.51869 -8.80758,0.14188 -17.69967,0.0562 -26.41437,-1.76345 -3.77967,-0.98686 -7.48932,-1.68937 -11.35545,-1.80976 -7.66459,-1.60198 -14.73074,-5.58007 -21.41301,-10.64326 -16.12152,-11.88074 -31.58764,-25.20323 -46.61645,-39.25532 -7.2241,-7.25203 -8.08614,-7.75361 -14.34628,-15.26679 -1.32539,-1.59067 -2.70273,-3.13698 -3.84095,-4.95279 -0.39383,-0.62828 -0.0726,-2.45746 -0.67997,-2.25948 -2.64571,0.86248 -5.18027,2.59015 -7.27132,4.85153 -0.70603,0.76354 1.84276,0.0152 2.76414,0.0228 6.57658,1.14004 13.18592,2.02611 19.83327,1.52588 6.92024,-0.33849 13.82742,-1.02793 20.67531,-2.40454 7.2121,-1.42306 14.44895,-2.66 21.60843,-4.48569 9.42274,-2.10036 18.84785,-4.61061 27.78839,-9.0905 15.64205,-7.24181 30.53837,-16.83754 44.2062,-29.13465 9.77374,-9.4981 18.53612,-19.8755 25.53277,-32.94373 0,0 -9.12381,5.18969 -9.12381,5.18969 z" />
    <path
       style="fill:#2b0000;stroke-width:0.760778"
       id="path148"
       d="m 671.27363,443.30393 c 4.36295,0.79783 8.58399,2.38093 12.57791,4.76861 4.18321,3.12381 3.00775,6.13323 0.51121,10.4704 -2.24552,3.37848 -4.82815,6.30399 -7.44472,9.18274 0,0 9.06161,-4.74443 9.06161,-4.74443 v 0 c 2.61768,-2.98114 5.24017,-5.97262 7.41708,-9.52051 2.67992,-5.47649 3.3555,-8.61338 -1.26006,-12.45484 -4.02801,-2.48284 -8.2984,-4.07769 -12.68142,-5.14181 0,0 -8.18161,7.43984 -8.18161,7.43984 z" />
    <path
       style="fill:#2b0000;stroke-width:0.760778"
       id="path150"
       d="m 550.87299,537.57991 c 0.62745,1.53373 3.34292,10.47685 5.09772,9.46994 10.8356,-6.21752 9.33931,-4.66693 12.61842,-13.72571 1.55208,-4.23509 2.08034,-8.98091 3.55097,-13.25266 0.48765,-1.4165 2.99795,-4.57041 1.89485,-3.95552 -10.15901,5.66279 -7.08914,4.3706 -4.65554,10.2006 0.75866,1.81747 1.2904,3.77788 1.9356,5.66682 1.47005,3.32402 2.76757,13.24007 5.33781,15.41265 0.80631,0.68157 2.00688,0.85183 2.88104,0.32752 10.41663,-6.24775 9.31365,-5.45909 13.89414,-13.10583 1.71771,-2.5067 2.35741,-6.03468 4.05134,-8.56791 0.46917,-0.70164 2.34348,-2.13677 1.79496,-1.53845 -2.17641,2.37404 -5.15032,3.77812 -6.68685,6.87453 -0.50449,1.01666 1.4199,1.58339 2.04264,2.48444 0.75452,1.0917 1.38423,2.31686 2.07634,3.47528 1.60136,2.53588 2.06791,4.20226 4.80575,4.85376 2.17003,0.51638 5.45624,-0.57544 7.32338,-1.8215 8.76572,-5.84991 10.06507,-7.14418 16.27557,-12.51454 1.18414,-1.03141 4.42553,-4.55304 3.55241,-3.09425 -1.28106,2.14038 -4.47218,2.54511 -4.81968,5.21158 -0.23033,1.76738 2.69149,1.02922 3.88744,1.94182 7.09965,5.41763 1.48559,2.9785 8.2511,9.18865 1.30529,1.19815 2.87958,1.81262 4.31938,2.71892 8.63487,-0.59114 15.77333,-8.11368 21.60589,-15.76896 1.17846,-1.54674 4.90525,-3.62673 3.45966,-4.73421 -1.59451,-1.22156 -4.11265,1.5015 -4.74318,3.75091 -0.42509,1.51649 2.49855,-0.13332 3.74782,-0.19997 5.06897,0.50163 9.52672,8.12961 14.63727,6.90039 0.87289,-0.20994 1.64822,-0.8527 2.47233,-1.27905 11.42887,-9.43606 8.09392,-4.39944 12.37026,-11.84379 0,0 -9.041,4.99267 -9.041,4.99267 v 0 c -3.35446,5.1704 -2.73427,3.42622 4.38275,-1.08983 -1.68325,1.272 -2.49279,2.38727 -4.57357,2.06182 -4.07183,-0.63687 -8.11503,-6.65292 -12.36162,-7.11263 -8.06746,-0.64409 -4.66799,-1.35927 -15.77774,8.60248 -1.3659,1.22476 -2.25766,3.1544 -3.44537,4.6567 -1.273,1.61018 -3.78482,2.38433 -3.93296,4.67596 -0.11473,1.77501 5.00038,-1.38945 3.77336,-2.20695 -1.39535,-0.92965 -3.01437,1.13897 -4.52155,1.70846 -1.40669,-0.76891 -2.96125,-1.19013 -4.22006,-2.30675 -1.54404,-1.36964 -2.69992,-3.3527 -4.04988,-5.02906 -1.428,-1.53619 -2.73368,-3.28421 -4.28399,-4.60859 -1.28644,-1.09895 -2.65328,-3.01338 -4.16401,-2.60825 -6.45779,1.73179 -10.57903,5.70045 -15.52474,10.00934 -1.30412,1.10039 -5.32199,2.4441 -3.91235,3.30117 1.48323,0.90182 3.3028,-1.39032 4.30951,-3.05969 0.78859,-1.30769 -2.34252,1.39187 -3.57777,1.84628 -2.03133,0.74726 -3.96639,1.21146 -5.81916,-0.50966 -0.84108,-0.7813 -1.32925,-2.05168 -1.99387,-3.07752 -0.0822,-0.14258 -3.73648,-6.77011 -4.31742,-6.67932 -10.8645,1.69789 -11.67725,5.83813 -16.31351,15.3073 -2.92124,4.34645 -5.62767,7.26051 2.98642,0.64086 0.70484,-0.54165 -1.63352,1.26519 -2.37788,0.8201 -2.27415,-1.35982 -4.2722,-12.39122 -5.37395,-15.09769 -0.64251,-1.97283 -1.17632,-4.01061 -1.92754,-5.9185 -0.64445,-1.63672 -0.82771,-4.82553 -2.24674,-4.68301 -10.58828,1.06342 -11.16269,7.09622 -13.82362,16.57343 -0.62079,2.21104 -1.30426,4.39196 -1.95638,6.58794 -2.63427,5.94282 -4.92339,8.72345 4.46649,1.44254 0.43781,-0.33947 -1.11517,0.008 -1.49536,-0.43262 -1.50312,-1.73979 -2.11943,-6.05359 -3.19275,-8.25097 0,0 -8.67258,6.36853 -8.67258,6.36853 z" />
    <path
       style="fill:#f4d7d7;stroke-width:0.760778"
       id="path152"
       d="m 720.6359,407.67679 c -0.45246,1.45005 -3.39293,7.82629 -2.1816,9.08482 1.81321,1.88387 5.38215,0.85855 7.13295,0.70813 9.80894,-1.46551 19.60649,-3.04415 29.44597,-4.13448 0.90647,0.034 1.87203,-0.31475 2.71943,0.1018 2.10918,1.03682 3.28642,5.78871 3.83276,7.67681 2.03473,7.03172 3.16683,14.53196 4.39678,21.84242 0.5725,4.63348 1.23553,9.82226 -1.3268,13.75831 -0.4766,0.7321 -2.38756,2.25625 -1.74905,1.77079 8.05644,-6.12531 8.39046,-5.79617 3.69057,-4.52835 -3.88269,0.19374 -12.86819,2.70522 -16.20696,0.13825 -0.88422,-0.67983 -1.52628,-1.78206 -2.28942,-2.67308 -3.3282,-5.39958 -5.53212,-11.73358 -7.94784,-17.83937 0,0 -8.47668,6.24362 -8.47668,6.24362 v 0 c 2.51247,6.19926 4.8235,12.59371 8.07961,18.22465 0.82352,1.0642 1.5031,2.35373 2.47057,3.1926 3.41715,2.96289 12.40511,0.39788 16.49239,0.35858 6.36119,-1.06949 3.51391,-0.16082 13.35322,-7.957 4.05684,-3.21445 2.98543,-11.76908 2.33383,-16.52575 -1.29271,-7.3873 -2.46329,-14.94266 -4.41823,-22.10166 -0.69091,-2.5301 -1.83716,-7.5529 -4.24325,-9.00883 -0.86268,-0.52201 -1.90371,-0.11579 -2.85557,-0.17369 -9.853,1.1859 -19.664,2.8382 -29.5016,4.21005 -1.40241,0.15232 -2.80536,0.29652 -4.20723,0.45696 -0.62645,0.0717 -1.29559,0.54683 -1.87757,0.23941 -1.03519,-0.54682 2.22769,-7.64969 2.4219,-8.4511 0,0 -9.08818,5.38611 -9.08818,5.38611 z" />
    <path
       style="fill:#f4d7d7;stroke-width:0.760778"
       id="path187"
       d="m 586.61543,400.0922 c 6.32783,0.86925 12.61961,2.08932 18.96087,2.8296 2.2128,0.67859 7.96205,-0.94564 9.20851,1.74338 1.10421,2.38214 0.67237,6.41148 0.63405,8.79277 -0.70653,5.26225 -0.88508,7.33357 -1.98168,12.5071 -0.39137,1.84638 -0.61243,3.80907 -1.34395,5.47455 -0.68983,1.57053 -1.72834,2.88316 -2.82183,4.00973 -1.10193,1.13528 -4.49995,4.17115 -3.68123,2.69007 1.08966,-1.97122 3.0366,-2.84703 4.5549,-4.27054 -6.35727,2.32132 -13.10199,2.71925 -19.66608,2.01943 -4.214,-1.01372 -5.02842,-2.96119 -4.2959,-8.22835 0.39379,-3.16051 1.33392,-6.04281 2.39998,-8.89858 0,0 -8.99983,5.3019 -8.99983,5.3019 v 0 c -0.99673,2.98247 -1.89879,5.99071 -2.29153,9.22429 -0.60812,6.19747 0.29638,8.49386 5.14028,10.00162 6.66899,0.81166 13.54623,0.3509 20.05802,-1.68603 4.0503,-2.66092 8.15995,-5.17666 12.15091,-7.98276 1.25303,-0.88102 2.52101,-1.80488 3.5614,-3.06478 4.51224,-5.46422 4.68367,-15.40434 5.87561,-22.76604 0.0309,-3.77778 0.77177,-10.19838 -2.87443,-12.06069 -1.68215,-0.85916 -5.8729,0.96122 -7.62914,-0.16663 -6.32265,-0.66832 -12.61907,-1.65746 -18.87243,-3.04722 0,0 -8.0865,7.57718 -8.0865,7.57718 z" />
    <path
       style="fill:#f4d7d7;stroke-width:0.760778"
       id="path189"
       d="m 602.96174,384.7973 c 0.67314,15.718 -1.40565,31.33583 -3.62583,46.72941 -0.47922,3.06905 -0.95845,6.1381 -1.43767,9.20716 0,0 8.4624,-5.29486 8.4624,-5.29486 v 0 c 0.46208,-3.06372 0.92415,-6.12745 1.38623,-9.19117 2.23734,-15.61118 4.22336,-31.37917 4.1209,-47.30296 0,0 -8.90603,5.85242 -8.90603,5.85242 z" />
    <path
       style="fill:#f4d7d7;stroke-width:0.760778"
       id="path191"
       d="m 579.94925,414.75968 c 11.4667,3.14988 23.15281,4.64009 34.79512,6.24286 0,0 7.6429,-7.00834 7.6429,-7.00834 v 0 c -11.48484,-1.46499 -23.07267,-2.7851 -34.26692,-6.57759 0,0 -8.1711,7.34307 -8.1711,7.34307 z" />
    <path
       style="fill:#f4d7d7;stroke-width:0.760778"
       id="path193"
       d="m 717.22895,432.39779 c 12.76999,0.0278 25.54156,0.68755 38.31104,1.03108 6.40991,0.16764 12.81992,0.32779 19.23001,0.48287 0,0 7.76927,-7.26095 7.76927,-7.26095 v 0 c -6.48049,-0.0513 -12.96105,-0.11053 -19.4406,-0.27307 -12.59544,-0.34845 -25.18326,-0.91715 -37.76984,-1.56964 0,0 -8.09988,7.58971 -8.09988,7.58971 z" />
    <path
       style="fill:#f4d7d7;stroke-width:0.760778"
       id="path195"
       d="m 750.63506,391.64966 c 1.30652,22.20067 1.25069,44.49972 1.42439,66.75236 0.0127,3.98125 0.0254,7.96251 0.0381,11.94375 0,0 8.20268,-5.39981 8.20268,-5.39981 v 0 c -0.0316,-3.96988 -0.0633,-7.93976 -0.0949,-11.90964 -0.16201,-22.48332 -0.46139,-44.96549 -0.71239,-67.44712 0,0 -8.85786,6.06046 -8.85786,6.06046 z" />
    <path
       style="fill:#f4d7d7;stroke-width:0.760778"
       id="path197"
       d="m 819.08193,254.28238 c 15.37847,-4.4326 31.34204,-3.90251 46.95558,-2.40693 10.61047,1.88794 23.34234,4.30769 31.16519,14.92653 1.21528,1.64961 2.14196,3.61656 3.21294,5.42484 0.83973,2.44123 1.85766,4.79299 2.51919,7.3237 3.89599,14.90301 4.36064,32.38049 4.89777,47.99946 0.22187,8.47651 0.39042,16.97314 -0.66375,25.38214 -1.1367,9.06718 -3.43334,17.58481 -5.90805,26.14957 -5.68913,17.14825 -15.68469,28.3058 -27.6749,37.92379 1.47065,-1.17365 3.30914,-1.80279 4.41195,-3.52098 0.76697,-1.19498 -2.18953,1.29382 -3.3208,1.82084 -4.4555,2.07566 -8.94863,2.02453 -13.6059,1.66643 -4.71079,-0.87244 -9.71159,-0.82906 -14.05132,-3.61502 -0.0496,-0.14657 -0.26837,-0.39609 -0.14906,-0.43973 0.26288,-0.0961 1.02671,-0.006 0.8049,0.19987 -2.29732,2.13195 -4.9472,3.58638 -7.22308,5.75622 -0.60272,0.57465 1.42476,-0.60129 2.136,-0.9062 3.95654,-1.69599 2.22141,-0.91087 6.46789,-3.02289 6.14212,-4.26017 10.34532,-6.91931 16.37229,-13.85239 1.70739,-1.96411 2.65497,-4.82508 3.73768,-7.42448 4.27683,-10.26808 6.51372,-21.49119 8.82068,-32.66427 3.07126,-16.45765 4.97748,-33.35023 3.2725,-50.22157 -0.87236,-3.62602 -1.391,-6.78004 -3.0714,-9.97362 -3.44801,-6.55285 -9.2811,-10.15661 -14.57331,-13.60898 -8.65193,-4.88558 -17.89974,-8.24077 -27.15398,-10.67597 -0.91127,-0.12157 -1.82262,-0.24313 -2.73389,-0.3647 0,0 -8.01766,7.39029 -8.01766,7.39029 v 0 c 0.91449,0.0623 1.82905,0.12451 2.74361,0.18677 9.25886,2.08532 18.45221,5.53773 27.08089,10.31737 5.12171,3.30383 10.83985,6.64494 14.19381,12.96787 1.66505,3.13885 2.10766,5.99631 2.96448,9.57719 1.76788,16.62051 0.009,33.28803 -3.02303,49.52137 -1.89068,8.99983 -2.69196,13.95846 -5.47543,22.60796 -1.08049,3.35765 -2.2744,6.66864 -3.68483,9.81617 -1.14226,2.54907 -4.02045,4.27452 -3.9479,7.21718 0.0449,1.8242 3.87087,-3.27362 4.08952,-1.47042 0.23239,1.91606 -2.6121,1.92238 -3.91815,2.88355 -1.14226,0.58099 -2.27387,1.1983 -3.42685,1.74296 -4.16174,1.96595 -15.86737,4.88345 -15.14582,10.49723 0.0516,0.39895 0.34213,0.67782 0.51322,1.01672 4.46748,2.97727 9.55731,3.01741 14.45233,3.87752 3.51587,0.36703 7.08601,0.70068 10.59359,-0.0888 6.87057,-1.54637 12.97611,-7.68939 18.81302,-11.69685 11.88557,-9.89263 21.70488,-21.33048 27.26338,-38.5672 0.82392,-2.91003 1.73184,-5.78278 2.47182,-8.7301 3.52392,-14.03567 4.86286,-28.53484 3.95447,-43.25216 -0.60332,-15.4165 -1.30773,-33.74566 -5.00763,-48.42913 -0.66408,-2.63544 -1.70123,-5.08945 -2.55181,-7.63418 -1.10059,-1.89417 -2.04389,-3.95892 -3.30178,-5.6825 -7.85105,-10.75745 -21.18363,-13.37531 -31.87897,-15.21661 -15.49082,-1.52888 -31.15005,-1.98956 -46.53589,1.33287 0,0 -7.86351,7.93925 -7.86351,7.93925 z" />
    <path
       style="fill:#f4d7d7;stroke-width:0.760778"
       id="path199"
       d="m 569.11001,248.30492 c -6.82192,-6.56511 -15.55685,-8.05389 -23.77425,-9.37774 -13.75811,-0.8217 -19.44511,5.78349 -31.17696,15.05999 -7.02536,7.3614 -14.03297,15.64485 -18.65071,25.83589 -0.83457,1.84184 -1.49075,3.80882 -2.23612,5.71322 -3.18291,10.42127 -4.42623,21.73091 -3.19021,32.8773 0.27599,2.48885 0.83918,4.91049 1.25878,7.36573 2.76675,10.54845 7.72805,20.06291 15.14244,26.05707 1.20525,0.97438 2.51963,1.70371 3.77945,2.55556 4.38565,2.12675 8.71018,5.19681 13.44653,5.86043 2.36976,0.33203 4.16078,-0.0153 6.50356,-0.28135 5.30763,-1.64951 14.04344,-4.59545 13.31491,-13.01235 -0.49917,-5.76711 -3.69306,-11.18715 -5.98908,-15.89308 -3.51534,-7.45036 -7.45286,-15.05118 -9.04716,-23.67578 -0.88076,-4.76462 -0.62013,-7.24835 -0.55993,-12.05932 0.59295,-4.11986 0.69174,-6.65654 2.28819,-10.40276 3.08391,-7.23668 8.47973,-12.28882 13.63833,-16.81037 -10.79197,7.56511 -2.86165,2.37619 -0.17184,1.03128 0,0 7.80457,-7.88139 7.80457,-7.88139 v 0 c -5.97374,2.81442 -11.26168,6.80909 -16.64757,11.42604 -5.16708,4.74938 -10.48196,10.01793 -13.42203,17.51823 -1.54754,3.94787 -1.58496,6.48276 -2.10254,10.76863 0.005,4.99102 -0.22105,7.49113 0.73215,12.42772 1.67837,8.69217 5.64682,16.33862 9.18802,23.88331 1.86431,3.92939 3.425,6.73022 4.64141,11.04196 0.38093,1.35028 0.73307,2.75926 0.76749,4.19545 0.0238,0.99171 -1.35855,3.02455 -0.59803,2.87491 2.4342,-0.47895 4.54006,-2.49712 6.6786,-4.07131 0.80111,-0.5897 -1.756,0.72939 -2.634,1.09408 -2.00326,0.30217 -4.31753,0.7713 -6.34443,0.58405 -4.70603,-0.43475 -9.00595,-3.51919 -13.3716,-5.49309 -1.24081,-0.7928 -2.53371,-1.46239 -3.72242,-2.37838 -7.33471,-5.65187 -12.19389,-14.9023 -14.89672,-25.18545 -0.3936,-2.40291 -0.92631,-4.77482 -1.18081,-7.20873 -1.1485,-10.9835 0.24417,-22.12858 3.48094,-32.32059 0.75199,-1.85412 1.41701,-3.77138 2.25597,-5.56236 4.72127,-10.07884 11.72027,-18.28798 18.85731,-25.43786 -1.53214,0.98959 -2.94219,2.39247 -4.59645,2.96879 -1.26113,0.43937 2.20753,-1.81745 3.38512,-2.54678 4.83337,-2.99348 10.1862,-3.92172 15.4924,-3.7134 7.9807,1.14036 16.55026,2.4176 23.12106,8.91836 0,0 8.53563,-6.74591 8.53563,-6.74591 z" />
    <path
       style="fill:#ffff00;stroke-width:0.760778"
       id="path201"
       d="m 763.52202,576.9235 c 1.64447,1.65956 3.39077,3.16376 4.93343,4.97867 12.80794,15.0683 22.95344,33.6033 29.92413,54.05764 1.89807,5.56956 3.30158,11.39817 4.95237,17.09726 3.03837,13.1966 5.17105,26.76736 5.44819,40.56257 0.0895,4.45535 -0.0204,10.6005 -1.27836,14.97339 -0.51646,1.79525 -1.48998,3.31264 -2.23498,4.96897 -2.16314,2.4663 -5.30826,6.58337 -8.22512,7.52737 -0.90181,0.29186 2.84148,-2.70843 1.91447,-2.61619 -2.39464,0.23826 -4.50724,2.14688 -6.79208,3.10152 -5.66494,2.36692 -7.4071,2.75616 -13.10431,4.5121 -5.13835,1.30727 -10.29815,2.46226 -15.46235,3.58363 0,0 -7.73891,7.51444 -7.73891,7.51444 v 0 c 5.22953,-1.18358 10.45026,-2.42659 15.66877,-3.68873 6.33433,-1.91884 14.09764,-4.02232 20.00745,-7.47137 4.91226,-2.86685 9.68945,-6.11075 14.44581,-9.38581 1.6325,-1.12409 3.24733,-2.33045 4.70507,-3.80079 1.26515,-1.27607 2.27503,-2.92467 3.41255,-4.38701 0.68239,-1.75819 1.58666,-3.40027 2.04719,-5.27457 1.10903,-4.51358 1.07083,-10.5315 0.87286,-15.08268 -0.59978,-13.78854 -2.94328,-27.32384 -6.06554,-40.49914 -1.68428,-5.71998 -3.14355,-11.55877 -5.05284,-17.15995 -7.8423,-23.00668 -19.46429,-43.78446 -34.03656,-60.4717 0,0 -8.34124,6.96038 -8.34124,6.96038 z" />
    <path
       style="fill:#ffff00;stroke-width:0.760778"
       id="path236"
       d="m 768.94178,544.27106 c 18.24876,9.8868 37.30702,17.61821 54.8301,29.64211 5.4493,3.73914 10.60953,8.14028 15.91427,12.21042 5.01325,5.36372 10.32582,10.29362 15.03983,16.09117 13.7916,16.96176 24.31136,37.36733 31.68417,59.98462 5.49565,16.85871 5.94871,22.73431 8.98634,40.01468 1.84794,17.40521 3.77534,38.01617 -0.72912,55.15451 -0.38534,1.46606 -0.94719,2.84481 -1.42074,4.26721 -0.50498,0.97043 -0.93647,2.01176 -1.51493,2.91131 -1.00185,1.55775 -11.13093,11.76471 5.06798,-3.37778 0.53539,-0.50043 -1.23671,0.6223 -1.88224,0.80689 -1.99197,0.56968 -4.02233,0.55888 -6.04726,0.68484 -14.98356,0.2456 -29.96391,0.1077 -44.93414,-0.74873 -11.51069,-1.02219 -23.05941,-1.66921 -34.53341,-3.2776 -7.91446,-1.86084 -15.56826,-5.18516 -23.17233,-8.50231 0,0 -7.90849,6.91764 -7.90849,6.91764 v 0 c 7.6372,3.27363 15.30555,6.54171 23.16419,8.82134 11.60108,1.89823 23.36745,1.72293 35.01634,2.94039 14.81569,0.88179 29.63988,1.2222 44.47104,1.29981 1.64301,-0.0364 4.35279,-0.0117 6.07579,-0.32947 6.21615,-1.14643 12.26032,-6.22107 15.06536,-13.43423 5.48434,-18.92871 3.22487,-39.96731 0.86391,-59.40247 -3.17643,-17.0043 -3.83703,-23.47881 -9.33503,-40.05401 -10.63157,-32.05185 -25.57836,-55.49026 -46.9992,-76.57443 -5.29113,-4.12297 -10.44058,-8.56486 -15.87347,-12.36892 -17.20073,-12.04384 -35.9184,-19.88104 -53.52933,-30.7897 0,0 -8.29963,7.11271 -8.29963,7.11271 z" />
    <path
       style="fill:#ffff00;stroke-width:0.760778"
       id="path238"
       d="m 865.73257,578.52127 c -5.01312,18.26057 -14.12957,34.78461 -25.96181,46.7913 -3.96928,4.02777 -8.35751,7.31674 -12.53626,10.97511 -2.71956,1.57721 -5.42007,3.21023 -8.15867,4.73162 -14.34273,7.96785 -19.50041,11.04075 -34.53604,16.90587 -17.34344,6.76535 -35.05744,11.17918 -52.84381,15.42422 -12.87597,2.73935 -25.38341,5.30217 -34.26701,19.50117 -2.4619,3.93494 0.73862,13.2046 1.97476,16.28821 1.01939,2.54293 2.46106,4.76501 3.69159,7.14751 4.10043,4.89475 4.3889,6.06114 9.37184,8.9988 1.44029,0.84911 2.92442,1.82297 4.50524,1.94488 1.51807,0.11708 3.12029,-0.31968 4.45758,-1.25365 12.01271,-8.38971 10.24513,-6.84214 15.98814,-16.85674 4.83274,-10.18347 9.77703,-21.05455 10.87962,-33.12159 -0.0711,-0.84555 -0.14213,-1.6911 -0.21319,-2.53666 0,0 -8.81121,5.94095 -8.81121,5.94095 v 0 c 0.0589,0.74743 0.11774,1.49487 0.17661,2.24229 -1.07803,11.80432 -5.9208,22.46437 -10.77644,32.31941 -8.68549,14.03226 -2.9062,2.36823 0.4327,4.39822 1.32382,0.80486 -2.68528,1.82521 -4.14866,1.85398 -1.54899,0.0304 -3.02986,-0.91716 -4.46012,-1.68479 -4.92651,-2.64407 -5.17771,-3.75957 -9.22566,-8.42529 -2.379,-4.58282 -5.18749,-8.82332 -5.77666,-14.58244 -0.25196,-2.46291 1.45242,-5.14777 0.64897,-7.4056 -0.48591,-1.36549 -4.45347,0.28244 -3.47105,-0.52496 4.92472,-4.04732 17.35935,-6.3724 22.21487,-7.61168 17.83885,-4.39275 35.68897,-8.80602 53.11938,-15.50597 20.07146,-7.71512 39.25265,-18.33411 57.24153,-32.24496 4.23998,-3.75267 8.69487,-7.13046 12.72008,-11.258 12.08842,-12.39597 21.36497,-29.56708 26.7245,-48.15975 0,0 -8.96082,5.70854 -8.96082,5.70854 z" />
    <path
       style="fill:#ffff00;stroke-width:0.760778"
       id="path240"
       d="m 662.78231,673.48695 c 2.77373,10.76658 6.46965,21.13708 9.93606,31.55586 2.18642,6.57162 4.93972,15.95185 8.46764,21.93979 0.94746,1.60814 2.3677,2.64434 3.55156,3.9665 1.0346,-0.24564 2.22777,0.0143 3.10381,-0.73692 3.74413,-3.21033 7.45284,-6.6569 10.49664,-10.92459 1.08245,-1.51771 1.07298,-3.88965 1.4892,-5.88069 1.21691,-5.82128 1.68504,-11.80547 2.15579,-17.78048 0.18379,-3.96997 0.98312,-8.50265 -1.29677,-11.83413 -2.38495,-3.48499 -6.66317,-4.36667 -9.90709,-5.54976 0,0 -8.01368,7.08478 -8.01368,7.08478 v 0 c 2.88819,1.03952 7.14352,1.81675 9.36332,4.81476 2.18118,2.94586 1.22734,7.51374 1.16347,11.0555 -0.4471,5.8805 -0.8878,11.79699 -2.21193,17.48782 -0.44879,1.92882 -2.94843,4.57281 -1.63482,5.66151 1.77289,1.46937 4.03626,-1.89998 6.14359,-1.92467 1.01323,-0.0118 -1.77724,1.25595 -2.66586,1.88393 -1.22369,-1.12118 -2.69879,-1.88864 -3.67107,-3.36353 -3.82867,-5.8078 -6.49505,-14.89938 -8.68,-21.57213 -3.37767,-10.31529 -6.95801,-20.78245 -8.8691,-31.74564 0,0 -8.92076,5.86209 -8.92076,5.86209 z" />
    <path
       style="fill:#ffff00;stroke-width:0.760778"
       id="path242"
       d="m 669.96095,694.02543 c -3.71876,0.0333 -7.43886,0.23255 -11.1563,0.10011 -14.59516,-0.51998 -30.26593,-2.07 -44.75561,-3.34747 -24.01571,-2.11732 -48.02454,-4.33415 -72.04559,-6.34917 -23.25166,-1.88876 -46.51643,-3.50978 -69.79882,-4.60586 -3.46297,0.501 -10.34048,0.81467 -8.74865,9.66024 0.73645,4.09237 5.98009,3.33441 8.98193,4.96584 14.14429,7.68713 28.43871,14.35599 42.95956,20.76139 23.61246,10.14553 47.6809,18.5204 72.24943,23.71429 5.65365,0.53352 11.40097,2.58115 17.11332,2.27479 2.71568,-0.14564 3.53141,-0.72117 6.157,-1.76477 10.01678,-5.43878 19.25783,-12.91449 28.77933,-19.61254 3.82321,-2.67946 7.79771,-4.9646 11.75295,-7.29236 0,0 7.65644,-7.84567 7.65644,-7.84567 v 0 c -4.00604,2.39165 -8.04925,4.68879 -11.94284,7.38042 -9.46329,6.62443 -18.62672,14.0285 -28.50433,19.61622 -2.24333,1.02871 -3.53704,1.84991 -5.9093,2.09619 -0.94925,0.0986 -1.90442,-0.0497 -2.85583,-0.10327 -4.88224,-0.27485 -9.74967,-0.88321 -14.5956,-1.68982 -24.80077,-4.63845 -49.14067,-12.57922 -72.88926,-22.8958 -12.80568,-5.72071 -17.94238,-7.73544 -30.30854,-14.32554 -4.04544,-2.15587 -8.02603,-4.5106 -12.00432,-6.86513 -2.76451,-1.63616 -5.17999,-5.09536 -8.22169,-5.10553 -3.54849,-0.0119 -6.65938,3.18257 -9.90079,5.04487 -0.77164,0.44333 1.64173,-0.51426 2.4626,-0.77139 23.72225,0.37036 47.4292,1.70399 71.11761,3.32894 24.08996,1.8175 48.16205,3.81016 72.22448,6.16971 1.57714,0.15465 39.67784,4.07829 43.69511,4.40889 3.49827,0.28789 7.00544,0.35293 10.50816,0.52938 0,0 7.97955,-7.47696 7.97955,-7.47696 z" />
    <path
       style="fill:#ffff00;stroke-width:0.760778"
       id="path244"
       d="m 517.29023,700.63028 c 1.09317,2.18346 2.5612,9.49142 4.18501,10.65623 2.70512,1.9405 4.78298,-0.30841 7.22677,-1.62732 3.50271,-2.63276 7.1668,-5.79727 11.45286,-4.67893 2.81374,0.73418 3.83639,2.36039 6.28434,4.02807 1.03296,0.70371 2.12932,1.24032 3.19398,1.86048 4.15018,1.1104 7.87297,-2.15311 12.01158,-1.59559 4.29033,0.57798 8.02805,4.11029 11.52739,7.0037 1.12718,0.69738 2.17988,1.64741 3.38156,2.09216 7.79202,2.88389 15.52617,-8.29932 21.55403,-11.28403 2.04524,-1.0127 -3.35762,3.63061 -5.03643,5.44592 4.80848,0.0483 9.42502,2.28483 14.16593,0.16227 1.21316,-0.54315 2.34707,-1.36239 3.45115,-2.20823 3.82893,-2.93336 7.55715,-6.08004 11.33572,-9.12006 0,0 -9.06913,4.64109 -9.06913,4.64109 v 0 c 1.77612,-1.13387 3.46479,-2.53199 5.32835,-3.40162 1.1917,-0.55611 -2.12555,1.81436 -3.29256,2.45162 -4.68399,2.55776 -9.28186,0.348 -14.08453,-0.0793 -3.9757,2.22197 -7.81183,4.91696 -11.92709,6.66593 -1.98035,0.84164 3.63206,-2.6433 5.467,-3.92043 1.03677,-0.72159 -1.99685,1.63279 -3.07213,2.25359 -3.63389,2.09796 -6.55305,2.15563 -10.03042,-0.47266 -3.58471,-2.96988 -7.52886,-6.78962 -11.86955,-7.65513 -4.13361,-0.82422 -7.60915,2.2646 -11.69437,2.02956 -1.04241,-0.56679 -2.12577,-1.02182 -3.12722,-1.70039 -2.68579,-1.81986 -3.52094,-3.49979 -6.56244,-4.54294 -4.4644,-1.53116 -8.17836,1.23926 -11.81058,4.23855 -0.94375,0.65764 -4.42922,3.90975 -6.26834,2.93345 -1.30977,-0.6953 -3.26698,-8.65033 -4.0003,-10.49258 0,0 -8.72058,6.31656 -8.72058,6.31656 z" />
    <path
       style="fill:#ffff00;stroke-width:0.760778"
       id="path246"
       d="m 836.88479,559.80064 c 6.50575,-0.0484 13.11881,2.8801 18.7394,7.02209 1.38102,1.01772 2.63944,2.29007 3.95923,3.43511 4.41161,5.13109 9.17017,10.98182 11.22745,18.4256 1.45591,5.26794 1.06341,7.25861 1.06321,12.85954 -1.59424,9.64996 -0.52199,4.94704 -3.20504,14.11319 0,0 8.66473,-5.20792 8.66473,-5.20792 v 0 c 2.59636,-9.41564 1.56028,-4.57641 3.08372,-14.52639 -0.0442,-5.73847 0.32986,-8.03851 -1.18085,-13.45299 -2.02239,-7.24834 -7.21759,-13.86822 -11.52402,-18.91066 -1.34773,-1.19347 -2.631,-2.51824 -4.04323,-3.58042 -5.4907,-4.12957 -12.30715,-7.41672 -18.68467,-7.76684 0,0 -8.09993,7.58969 -8.09993,7.58969 z" />
    <path
       style="fill:#ffff00;stroke-width:0.760778"
       id="path248"
       d="m 847.50009,764.16092 c -0.72082,15.90521 -2.02701,31.86073 -1.74712,47.81545 0.21035,11.99378 0.80121,15.11572 2.05621,26.63404 1.37646,7.86058 2.3012,16.28147 5.35987,23.47398 0.48635,1.14376 1.21648,2.08457 1.82469,3.12685 0,0 8.44245,-6.51269 8.44245,-6.51269 v 0 c -0.61437,-0.9149 -1.35556,-1.71059 -1.84312,-2.74472 -3.24342,-6.87898 -4.20642,-15.21535 -5.68082,-22.85951 -0.47824,-4.10908 -1.10159,-8.19439 -1.4346,-12.32723 -1.66915,-20.71477 -0.084,-41.66123 1.94032,-62.22912 0,0 -8.91788,5.62295 -8.91788,5.62295 z" />
    <path
       style="fill:#ffff00;stroke-width:0.760778"
       id="path250"
       d="m 807.67336,757.22438 c -0.76115,2.2908 -1.5015,4.59328 -2.28346,6.87239 -2.72971,7.95601 -3.68832,9.97741 -6.09897,18.31951 -3.06972,10.62285 -5.48041,21.56464 -7.92853,32.44278 -1.77543,8.60376 -3.575,17.22003 -4.05957,26.1387 -0.12075,2.22245 -0.0591,4.45515 -0.0888,6.68273 0,0 8.57686,-5.61736 8.57686,-5.61736 v 0 c 0.0163,-2.17302 -0.0606,-4.35056 0.0491,-6.51908 0.44516,-8.79941 2.2102,-17.31737 3.90869,-25.8186 4.4088,-19.83724 9.37565,-39.45786 16.91622,-57.74762 0,0 -8.99157,5.24655 -8.99157,5.24655 z" />
    <path
       style="fill:#ffff00;stroke-width:0.760778"
       id="path252"
       d="m 795.87466,853.70256 c -21.11869,1.35446 -42.27087,1.12882 -63.38924,2.44501 -1.86213,0.25482 -3.84684,-0.12957 -5.58639,0.76445 -3.39546,1.74506 -7.24058,3.32455 -9.52665,7.00274 -0.87563,1.40884 2.49886,1.75463 3.87427,2.09169 2.35686,0.57757 4.78554,0.45231 7.18113,0.61755 5.93428,0.40933 12.04473,0.61745 17.98111,0.86129 8.79288,0.34155 17.58755,0.59404 26.38286,0.80179 0,0 7.81488,-7.30651 7.81488,-7.30651 v 0 c -8.909,-0.0326 -17.81828,-0.12764 -26.72431,-0.44978 -6.38661,-0.2785 -11.43131,-0.42599 -17.78252,-0.98049 -4.53219,-0.39568 -13.88137,-2.69476 -16.86021,4.73127 -0.90333,2.25197 3.89003,-0.73826 5.83503,-1.10739 20.89609,-1.73263 41.83618,-1.62591 62.767,-1.94455 0,0 8.03304,-7.52707 8.03304,-7.52707 z" />
    <path
       style="fill:#ffff00;stroke-width:0.760778"
       id="path254"
       d="m 869.005,859.3417 c -8.88948,3.12509 -17.87663,5.77956 -26.86619,8.37736 -8.81853,2.54836 -4.83392,1.06179 -11.03894,3.62933 -1.90006,2.89899 -7.193,5.42559 -5.70011,8.69699 1.70558,3.73762 6.70658,0.6668 10.06563,0.86951 4.45757,0.269 8.92009,0.38074 13.38074,0.54543 5.19983,0.19198 17.32369,0.80564 23.16428,0.20919 1.83327,-0.18722 3.61268,-0.89058 5.41895,-1.33586 3.27867,-2.81729 7.35814,-4.50163 9.83606,-8.45187 0.74574,-1.18892 -1.46643,-2.46595 -2.44074,-3.33756 -3.34733,-2.99445 -10.27297,-5.67281 -14.20152,-7.30587 -1.4963,-0.62202 -3.00922,-1.1756 -4.51384,-1.76341 0,0 -7.97451,7.02938 -7.97451,7.02938 v 0 c 4.86916,1.81362 9.70475,3.68464 14.37026,6.27286 1.33881,0.74272 2.67112,1.51926 3.94194,2.43954 0.61799,0.44755 1.007,1.83615 1.70029,1.64651 2.46486,-0.67414 4.59624,-2.6648 6.89436,-3.9972 -1.88619,0.61762 -3.72569,1.56201 -5.65865,1.85285 -6.35106,0.95559 -17.47019,0.36599 -23.38682,0.096 -4.36049,-0.19896 -8.72126,-0.42034 -13.07586,-0.77376 -3.10081,-0.25167 -6.23899,-1.82573 -9.2858,-1.04113 -3.6727,0.94579 -6.80385,4.04034 -10.20578,6.06052 6.22311,-3.05642 2.6661,-1.57851 11.33109,-4.10013 8.77674,-2.55412 17.55722,-5.08872 26.31586,-7.7449 0,0 7.9293,-7.87381 7.9293,-7.87381 z" />
    <path
       style="fill:#ffff00;stroke-width:0.760778"
       id="path256"
       d="m 1003.0969,307.09853 c 5.4681,1.59887 11.0573,2.57876 16.6419,3.18026 3.095,0.33335 6.1965,0.86357 9.3003,0.72386 9.4251,-0.42428 17.0769,-2.79023 26.3409,-5.04838 16.9983,-4.94963 33.168,-13.07463 49.0122,-22.24363 0,0 7.1042,-7.27221 7.1042,-7.27221 v 0 c -15.8625,9.37594 -32.0456,17.73938 -49.1333,22.71152 -9.0786,2.22097 -16.6032,4.57783 -25.8379,4.93203 -3.0502,0.11699 -6.0954,-0.43311 -9.1339,-0.79792 -5.4247,-0.65132 -10.8904,-1.64186 -16.1466,-3.53508 0,0 -8.1478,7.34955 -8.1478,7.34955 z" />
    <path
       style="fill:#ffff00;stroke-width:0.760778"
       id="path258"
       d="m 1044.0556,242.29379 c 2.3817,84.17048 1.8469,168.42892 1.3821,252.63723 -0.3107,26.7679 -0.3961,53.53831 -0.4346,80.30861 0,0 7.7298,-5.0993 7.7298,-5.0993 v 0 c -0.6906,-26.39056 -1.2132,-52.78828 -1.227,-79.19692 -0.4715,-84.81443 -0.9689,-169.67567 1.3821,-254.45366 0,0 -8.8324,5.80404 -8.8324,5.80404 z" />
    <path
       style="fill:#ffff00;stroke-width:0.760778"
       id="path260"
       d="m 1036.1082,419.71912 c 1.6559,-7.15172 2.6353,-14.79889 5.3138,-21.5037 0.7678,-1.92208 4.3302,-6.32132 2.8264,-5.36537 -26.6466,16.93945 -29.2157,15.67614 -18.6757,17.68851 0.9993,1.77225 2.2102,3.37521 2.9981,5.31674 5.3744,13.2437 7.1987,32.93754 9.327,47.74037 0.6845,4.0949 1.0663,8.2577 1.6513,12.37464 0.2036,1.43349 0.4028,2.87084 0.687,4.28136 0.2098,1.04141 0.029,3.49512 0.7925,3.0619 28.9451,-16.41969 25.4818,-6.97896 29.4108,-27.42193 2.6037,-9.54732 4.5098,-19.66118 8.0797,-28.74031 0.8952,-2.27666 4.9766,-7.55442 3.1882,-6.46045 -26.8345,16.41535 -27.167,14.94356 -15.9905,18.14036 1.6083,1.91108 3.4748,3.5145 4.8248,5.73324 6.5827,10.81797 10.1554,24.42811 13.9985,37.04064 0,0 23.6646,-17.03708 23.6646,-17.03708 v 0 c -2.9072,-9.293 -5.4107,-17.66301 -8.7234,-26.74839 -1.5094,-4.13961 -2.89,-8.39458 -4.8078,-12.24275 -1.3808,-2.77079 -3.3439,-4.97958 -5.0158,-7.46937 -1.8026,-1.217 -3.519,-4.62684 -5.4077,-3.65099 -10.2398,5.29076 -19.6232,13.16771 -28.6909,21.26923 -1.6037,1.43282 -1.8774,4.42001 -2.6486,6.73113 -3.1435,9.41913 -5.071,19.47595 -8.2212,28.89564 -1.0213,2.65273 -5.3005,8.62901 -3.0638,7.95819 9.0175,-2.70437 17.2062,-8.95751 25.3479,-14.64134 0.6119,-0.42714 -0.637,-1.60142 -0.8696,-2.44711 -1.4236,-5.17574 -1.9231,-10.70194 -3.1345,-15.95167 -1.7058,-9.39809 -3.1475,-18.87714 -4.9057,-28.25837 -1.0619,-5.66623 -2.9134,-15.25847 -4.7765,-20.73144 -0.9181,-2.6971 -2.2507,-5.12643 -3.376,-7.68965 -1.4099,-1.08445 -2.7292,-4.1123 -4.2297,-3.25339 -9.8966,5.66527 -18.9787,13.56229 -27.83,21.60571 -1.3934,1.26629 -1.6994,3.82264 -2.3738,5.84171 -2.4078,7.20859 -3.5983,15.01004 -5.8491,22.29351 0,0 26.4797,-16.35957 26.4797,-16.35957 z" />
    <path
       style="fill:#ffff00;stroke-width:0.760778"
       id="path262"
       d="m 1158.9646,471.95038 c 2.4192,-4.90959 2.1117,-3.78534 3.9543,-10.87887 0.837,-3.22239 1.7573,-6.43788 2.2297,-9.78123 0.9959,-7.04889 0.9206,-15.18068 0.2848,-22.27537 -0.2857,-3.18733 -0.9046,-6.31019 -1.3569,-9.46528 -2.8412,-8.34816 -6.8126,-17.66172 -14.4552,-19.58398 -1.2778,-0.3214 -2.7461,-0.81777 -3.9055,-0.054 -9.7448,6.41963 -18.9098,14.20851 -28.3647,21.31276 -0.6043,2.16704 -1.4746,4.23988 -1.8128,6.5011 -1.2097,8.08873 -0.2854,11.8432 1.3482,20.04471 2.3274,11.6845 5.933,21.15344 10.0376,31.86698 1.2578,2.62409 2.0461,5.738 3.7733,7.87228 4.9454,6.11098 10.2983,6.57464 16.8881,6.74703 9.966,0.26071 19.8516,-2.8812 29.4695,-5.7732 0,0 21.9742,-21.67291 21.9742,-21.67291 v 0 c -9.4954,3.27922 -19.0927,6.5666 -29.0033,6.82696 -5.0494,0.13265 -10.7715,0.0696 -14.9092,-4.54185 -1.7408,-1.94021 -2.6145,-4.88361 -3.9218,-7.32541 -4.1158,-9.94888 -8.0074,-19.6162 -9.715,-30.81438 -1.0431,-6.84055 -1.5945,-12.06998 0.3726,-18.59748 0.576,-1.91123 1.769,-3.40778 2.6535,-5.11167 -7.4235,5.08813 -14.847,10.17626 -22.2705,15.26439 1.1068,-0.4179 2.1685,-1.18301 3.3205,-1.25369 1.2481,-0.0765 2.5236,0.2584 3.6938,0.82328 5.129,2.47585 7.6994,8.64826 9.9271,14.62711 0.48,2.93997 1.1588,5.83743 1.4399,8.8199 1.4121,14.97898 -1.4129,30.273 -9.3004,41.65705 0,0 27.6482,-15.23425 27.6482,-15.23425 z" />
    <path
       style="fill:#ffff00;stroke-width:0.760778"
       id="path264"
       d="m 975.8097,292.77765 c 14.1033,3.70347 28.667,3.45699 42.9848,3.60566 19.7028,0.20456 17.5495,0.0967 36.7352,-0.35688 15.5715,-1.02631 13.4247,-0.49711 27.8298,-2.79678 1.8618,-0.29723 12.5252,-3.20092 15.715,-1.18177 2.9666,1.87784 0.956,11.26582 0.8419,12.51989 -2.4977,12.52747 -5.9436,25.44074 -13.5403,34.45664 -1.2207,1.44875 -2.6993,2.48797 -4.049,3.73197 0,0 26.8424,-13.94594 26.8424,-13.94594 v 0 c 1.1481,-1.40387 2.4112,-2.6662 3.4442,-4.21159 6.8443,-10.23907 10.0108,-23.40753 12.5319,-36.25717 0.2616,-5.36133 2.3312,-13.96795 -3.0011,-17.64303 -3.558,-2.45225 -15.206,1.55654 -17.5284,2.0602 -14.8725,3.22536 -12.7749,2.52867 -28.8358,4.1924 -5.9691,0.24427 -11.9355,0.66468 -17.9073,0.73279 -11.6123,0.13247 -23.7398,-0.31885 -35.3299,-1.6224 -5.2774,-0.59358 -13.0132,-1.91029 -18.5412,-3.62851 -1.1309,-0.35152 -2.2062,-0.95269 -3.3093,-1.42903 0,0 -24.8829,21.77355 -24.8829,21.77355 z" />
    <path
       style="fill:#ffff00;stroke-width:0.760778"
       id="path266"
       d="m 1054.6358,234.93666 c 3.5249,38.01538 3.8011,76.38836 4.1587,114.61903 0.468,50.05819 0.346,40.8558 0.2503,90.67098 -0.083,34.6025 -0.9083,69.18705 -1.8261,103.76511 0,0 21.464,-14.10466 21.464,-14.10466 v 0 c -0.929,-33.77744 -1.7523,-67.562 -1.8261,-101.36515 -0.096,-50.03244 -0.2163,-40.47861 0.2503,-90.99998 0.3701,-40.05804 0.7781,-80.21829 4.1588,-120.08465 0,0 -26.6299,17.49932 -26.6299,17.49932 z" />
    <path
       style="fill:#ffff00;stroke-width:0.760778"
       id="path268"
       d="m 1012.7954,679.4974 c 8.4197,29.72212 12.3551,61.09516 16.5268,92.14769 0,0 21.6185,-14.86177 21.6185,-14.86177 v 0 c -4.9105,-31.50346 -9.702,-63.08006 -12.4339,-95.04871 0,0 -25.7114,17.76279 -25.7114,17.76279 z" />
    <path
       style="fill:#ffff00;stroke-width:0.760778"
       id="path270"
       d="m 978.25285,610.52523 c 2.59261,0.71199 5.21872,1.24512 7.77783,2.13598 5.39966,1.87964 27.69482,11.16304 30.79922,12.49281 18.8148,8.0595 37.3397,17.02847 55.8778,26.07432 11.0613,5.67556 22.3122,10.76905 33.2036,16.98903 0.1194,0.0682 8.8119,4.34122 8.8281,7.3736 0.01,1.66775 -1.9245,2.22838 -2.8867,3.34256 -2.9407,1.83881 -5.9504,7.5284 -8.8222,5.51642 -2.3865,-1.67202 8.007,-8.10691 5.2926,-7.98928 -7.2017,0.31208 -13.6678,5.89849 -20.5504,8.65048 -0.3706,0.14821 -30.3413,11.4364 -33.3582,12.57288 0,0 -20.3685,20.32006 -20.3685,20.32006 v 0 c 24.8269,-10.47202 6.3702,-2.88546 34.7046,-13.89541 6.6545,-2.58574 13.5315,-4.38634 19.9419,-7.84927 33.1593,-17.91305 30.2038,-16.24443 49.5516,-32.79839 0.382,-2.51361 1.7272,-5.09152 1.146,-7.54083 -0.9485,-3.99719 -8.7913,-6.78494 -10.5574,-7.59099 -11.7265,-5.35183 -23.6783,-9.8454 -35.4272,-15.11163 -30.5881,-13.67988 -61.1915,-27.49964 -90.7091,-44.74112 0,0 -24.44355,22.04878 -24.44355,22.04878 z" />
    <path
       style="fill:#ffff00;stroke-width:0.760778"
       id="path272"
       d="m 1147.9002,682.14415 c 1.0428,12.84655 1.6498,25.72525 2.075,38.62682 0,0 24.9118,-16.61238 24.9118,-16.61238 v 0 c -0.7854,-13.11141 -1.5666,-26.33264 -0.4452,-39.4557 0,0 -26.5416,17.44126 -26.5416,17.44126 z" />
    <path
       style="fill:#ffff00;stroke-width:0.760778"
       id="path274"
       d="m 1192.3129,668.58266 c 1.5175,17.55922 -0.1501,35.56534 -2.5866,52.87899 -1.4975,10.64055 0.683,9.97005 -3.4301,10.01395 9.1705,-7.60944 19.4416,-13.36948 27.5112,-22.82832 1.971,-2.31025 0.399,-6.85289 0.7198,-10.26279 0.344,-3.65846 0.326,-7.45641 1.2738,-10.93308 0.7534,-2.76395 5.3532,-9.39865 3.7152,-7.36848 -19.6922,24.4085 -18.7302,17.40641 1.7461,28.62446 10.9105,6.01142 19.8051,16.50579 30.24,23.53761 2.6903,1.81291 5.7801,5.31098 8.5998,3.86163 10.4329,-5.36258 20.7257,-12.64685 28.5955,-22.98037 1.4661,-1.925 -3.5732,-27.11396 -3.6798,-27.70502 -1.0397,-4.90567 -2.0793,-9.81134 -3.1189,-14.71701 0,0 -23.6241,16.53855 -23.6241,16.53855 v 0 c 0.9818,4.86413 1.9636,9.72826 2.9454,14.59238 0.6261,4.76743 1.668,9.47459 1.8784,14.30231 0.5384,12.35709 -8.4149,34.19049 19.6403,-0.30097 2.4103,-2.96318 -6.8383,0.23848 -9.9356,-1.33814 -2.607,-1.32701 -28.7101,-22.45967 -30.3541,-23.77778 -22.4565,-16.67945 -14.6307,-17.1037 -48.7893,4.31699 -2.805,1.759 -3.9676,17.55619 -4.1889,19.27765 -0.4612,3.58734 -4.2606,10.52953 -1.4462,10.74833 8.988,0.69875 17.4208,-5.88617 26.1312,-8.82925 -2.9764,-2.25894 -1.4624,-0.58254 -0.704,-9.82543 1.5197,-18.52213 4.5997,-36.81037 5.6233,-55.41261 0,0 -26.7624,17.5864 -26.7624,17.5864 z" />
    <path
       style="fill:#ffff00;stroke-width:0.760778"
       id="path276"
       d="m 1289.8091,673.3169 c -8.8506,18.46764 -16.4453,38.26509 -19.997,59.62621 -0.5796,3.48572 -0.8374,7.04765 -1.2561,10.57147 0.043,2.77974 -0.2934,5.61277 0.1289,8.33922 1.1986,7.73946 6.5028,12.91735 12.6496,12.4726 2.134,-0.1544 4.2911,-0.99361 6.1432,-2.36919 10.0446,-7.46011 19.5809,-16.00486 29.3713,-24.0073 0,0 -26.2996,13.80009 -26.2996,13.80009 v 0 c 6.4491,-4.20394 12.8419,-8.5545 19.3473,-12.6118 1.7728,-1.10574 -3.2439,3.07548 -5.142,3.75208 -1.6305,0.58118 -3.4347,0.4269 -5.0741,-0.11059 -5.6191,-1.84219 -5.9587,-9.15809 -6.0071,-15.22905 0.2913,-3.28853 0.4007,-6.61241 0.8738,-9.86559 3.2214,-22.14867 11.7567,-42.36939 22.6059,-59.79801 0,0 -27.3441,15.42986 -27.3441,15.42986 z" />
    <path
       style="fill:#ffff00;stroke-width:0.760778"
       id="path278"
       d="m 1313.4391,617.13899 c 6.7075,18.55903 10.6374,38.54704 14.4963,58.31997 1.6056,8.2267 3.1649,16.47067 4.5647,24.75965 2.88,19.61554 1.5637,11.63011 3.6929,24.02408 9.1736,-6.30689 18.3471,-12.61377 27.5206,-18.92064 0,0 -27.3544,15.14786 -27.3544,15.14786 v 0 c 8.3348,-4.90345 16.6696,-9.80691 25.0044,-14.71035 -5.7821,-8.07056 -3.6004,-3.82354 -7.2928,-20.56945 -6.2728,-28.44833 -10.2775,-57.59815 -14.8128,-86.55101 0,0 -25.8189,18.49989 -25.8189,18.49989 z" />
    <path
       style="fill:#ffff00;stroke-width:0.760778"
       id="path280"
       d="m 1354.8455,700.20205 c 5.5423,9.26046 10.1116,19.38821 14.8223,29.35786 0,0 23.8942,-17.92558 23.8942,-17.92558 v 0 c -4.8535,-9.874 -9.8115,-19.72634 -13.348,-30.54359 0,0 -25.3685,19.11131 -25.3685,19.11131 z" />
    <path
       style="fill:#ffff00;stroke-width:0.760778"
       id="path282"
       d="m 1391.3513,690.08327 c 3.6293,7.49972 7.1712,15.07359 10.9318,22.4665 1.0992,2.16073 5.2811,10.58981 7.279,12.47906 1.074,1.01561 2.5328,1.06314 3.7992,1.59471 9.395,-7.59397 19.5371,-13.83249 28.1849,-22.78192 1.6531,-1.71081 1.167,-5.2673 1.5227,-7.9621 1.1729,-8.8844 1.1347,-18.16048 -0.08,-27.02561 -0.376,-2.74378 -0.9962,-5.42251 -1.4942,-8.13376 -1.676,-5.65939 -2.4867,-13.06334 -6.3701,-17.22785 -4.4373,-4.75867 -10.3576,-4.07101 -15.6918,-4.04587 -7.8788,0.98854 -3.9649,0.28999 -11.7418,2.09343 0,0 -22.8324,22.29109 -22.8324,22.29109 v 0 c 7.5443,-2.12849 3.753,-1.29162 11.3731,-2.51818 4.1172,-0.28015 10.1223,-1.72797 13.8757,1.51033 3.7809,3.26203 4.6622,10.48201 6.2998,15.35747 0.4846,2.55309 1.1043,5.06972 1.4538,7.65926 1.1139,8.25419 1.2137,17.57046 -0.6552,25.68032 -0.5598,2.42915 -4.3018,7.60787 -2.4062,6.94028 7.9987,-2.81707 14.9262,-9.31876 22.3894,-13.97815 -1.0036,0.41551 -2.0302,1.74462 -3.011,1.24654 -2.0346,-1.0332 -6.7613,-9.9936 -7.5499,-11.49017 -3.8034,-7.21813 -7.3027,-14.79993 -9.4513,-23.11962 0,0 -25.8253,18.96424 -25.8253,18.96424 z" />
    <path
       style="fill:#ff0000"
       id="path785"
       d="m 449.79915,703.62801 c 2.97574,6.54276 2.15582,16.30017 6.20959,22.11332 0.89745,1.28695 2.29057,2.14474 3.43585,3.2171 4.48818,1.52301 3.68649,1.77648 8.25079,1.41016 0.0283,-0.002 4.17021,-0.83575 4.90333,-0.62447 1.21019,0.34877 2.21726,2.5021 2.67925,3.23341 10.10413,15.41137 2.2547,5.14114 44.03511,-18.48688 1.43325,-0.81055 1.49964,-2.93264 2.19705,-4.42422 0.0269,-0.0575 4.27844,-9.69537 4.38828,-9.85074 0.57712,-0.81631 1.63111,-1.15637 2.44667,-1.73455 -62.22807,37.28785 -44.36412,10.14254 -34.9853,24.13344 0.80112,1.19507 1.37075,2.53318 2.14963,3.74286 0.76793,1.19266 1.35361,2.59879 2.48474,3.45476 1.22692,0.92846 2.91445,2.3491 4.2996,1.67923 14.3949,-6.96151 27.73601,-15.91909 41.60401,-23.87863 11.32226,-13.10138 7.80083,-8.26169 -30.57347,16.62525 -0.87678,0.56862 2.0749,-0.57375 3.10763,-0.41393 1.27167,0.1968 2.37621,0.98945 3.57831,1.44861 4.79741,1.83247 2.75025,1.38478 7.80768,1.37384 13.62931,-7.93736 27.34777,-15.72358 40.88792,-23.81208 0.97678,-0.58351 3.61344,-2.74557 2.6253,-2.1815 -12.09914,6.90661 -24.06133,14.05196 -35.99975,21.23281 -0.25359,0.15253 0.65208,-0.29675 0.88104,-0.10926 0.92555,0.75791 3.14071,4.49652 3.61959,5.25904 0.73734,2.14609 6.46837,10.10552 8.78858,5.47994 2.44725,2.50071 3.05281,6.38643 5.44548,8.93051 0.75592,0.80375 1.64477,2.56524 2.61168,2.03372 13.55649,-7.45218 26.07835,-16.64854 39.11752,-24.97281 0.3469,-1.19068 1.07767,-4.19019 1.93128,-5.22326 0.46666,-0.56477 2.49869,-1.53106 1.87041,-1.15421 -12.07928,7.25618 -24.15857,14.51237 -36.23785,21.76856 1.95502,-1.13337 0.87647,-0.80538 3.26115,-0.89595 17.81051,3.04521 39.35469,-9.47992 44.16579,-26.53217 0,0 -40.71245,18.53523 -40.71245,18.53523 v 0 c -0.37149,0.47528 -0.65195,1.0386 -1.11448,1.42586 -0.43936,0.36786 -2.03177,1.06074 -1.5284,0.78692 37.82411,-20.5751 51.38215,-23.09598 35.74706,-19.9875 -0.25865,-0.0743 -4.67298,-1.37906 -4.86224,-1.27658 -36.11899,19.55674 -34.63132,11.29589 -43.20558,31.04983 12.40105,-6.98767 24.41002,-14.72208 37.20316,-20.963 0.82038,-0.40021 0.89242,2.18151 0.16535,2.7334 -0.6049,0.45916 -1.02016,-1.13374 -1.4332,-1.77103 -1.89077,-2.91736 -2.87559,-6.31678 -4.90089,-9.1603 -0.50027,-0.44186 -2.44535,-3.21962 -3.89797,-1.80267 -0.42448,0.41406 -0.20614,1.17905 -0.44162,1.72327 -0.13794,0.31879 -0.31462,0.88088 -0.6548,0.81064 -0.91068,-0.18806 -2.99017,-3.69164 -3.04834,-3.77782 -0.6781,-1.12246 -5.8719,-10.80208 -7.38449,-10.14267 -14.17028,6.17748 -27.10362,14.87614 -40.54043,22.51879 -0.97283,0.55333 -3.64328,2.58212 -2.65777,2.05169 11.88214,-6.39534 23.58928,-13.11061 35.38393,-19.66592 -5.56472,4.16552 -4.64651,1.74372 -10.28975,-1.01878 -1.57472,-0.77086 -3.32489,-2.66507 -4.90367,-1.90256 -31.99448,15.45256 -30.44168,14.48553 -44.78265,27.37677 11.71638,-6.26866 23.30335,-12.78545 35.14914,-18.80598 0.86694,-0.44062 -1.15244,2.18146 -2.11046,2.01433 -1.18631,-0.20697 -1.64852,-1.77278 -2.30216,-2.78418 -0.1836,-0.28407 -4.46905,-8.77665 -4.92763,-8.61467 -14.44052,5.10066 -27.58454,13.31447 -41.3768,19.9717 -1.98376,3.87314 -3.48007,8.27268 -6.22414,11.70126 -0.93121,1.1635 -4.67315,3.60238 -3.30563,3.01011 39.06288,-16.91802 45.57233,-6.7736 35.87818,-19.8099 -1.7005,-2.92834 -3.604,-7.1676 -7.5154,-7.65734 -3.22994,-0.40442 -6.0403,3.02749 -9.35272,2.2569 -0.83067,-0.40314 -1.87931,-0.51868 -2.492,-1.20944 -3.58707,-4.04404 -3.62249,-16.00175 -4.88024,-21.50228 0,0 -39.6678,21.04402 -39.6678,21.04402 z" />
    <path
       style="fill:#280b0b"
       id="path888"
       d="m 431.211,937.62046 c 1.20482,15.95042 0.017,31.95673 -0.54232,47.91077 0,0 25.58048,-13.00809 25.58048,-13.00809 v 0 c -0.32444,-16.14667 0.53917,-32.28827 1.46292,-48.40566 0,0 -26.50108,13.50298 -26.50108,13.50298 z" />
    <path
       style="fill:#280b0b"
       id="path890"
       d="m 444.12787,923.92451 c 6.19853,5.67734 13.683,19.93165 21.86866,21.47986 2.25808,0.42709 4.58974,-0.24414 6.88461,-0.3662 35.73655,-21.62106 23.77582,-10.25555 39.9061,-27.79926 2.41442,-2.62598 4.54083,-5.551 7.24976,-7.87198 1.98644,-1.70197 8.70701,-5.76246 6.70231,-4.08204 -20.48307,17.16978 -25.42511,8.67769 -14.36965,19.9765 9.27631,15.41498 14.08875,32.9026 19.75878,49.83793 0,0 24.8833,-13.76555 24.8833,-13.76555 v 0 c -6.39609,-17.07937 -11.58287,-34.70389 -20.15199,-50.88168 -1.90808,-2.3238 -2.74828,-7.40091 -5.72425,-6.9714 -7.66577,1.10637 -27.93229,8.232 -37.03799,16.75449 -2.57207,2.40733 -4.71533,5.23747 -7.16694,7.76736 -2.61948,2.70311 -11.80367,8.06432 -8.04207,7.92724 6.3436,-0.23116 11.43936,-5.50631 17.15904,-8.25947 -1.96203,0.52089 -3.85614,1.57693 -5.88608,1.56267 -1.78253,-0.0125 -3.59949,-0.66222 -5.09011,-1.63977 -1.68711,-1.10642 -2.81818,-2.891 -4.14123,-4.41418 -4.0196,-4.62761 -7.57584,-9.65074 -11.39071,-14.44252 0,0 -25.41154,15.188 -25.41154,15.188 z" />
    <path
       style="fill:#280b0b"
       id="path892"
       d="m 581.38648,931.64762 c 2.00236,5.95431 3.10401,12.14577 4.28537,18.29737 0,0 25.42266,-13.55007 25.42266,-13.55007 v 0 c -1.13527,-6.26062 -2.29933,-12.51528 -3.48725,-18.76613 0,0 -26.22078,14.01883 -26.22078,14.01883 z" />
    <path
       style="fill:#280b0b"
       id="path894"
       d="m 649.93421,933.78702 c -6.36714,8.01431 -13.303,15.58716 -19.02011,24.1035 -3.84781,5.73179 -5.38712,8.86766 -8.62152,14.81099 -1.47176,3.60501 -3.9229,7.99391 -3.37807,12.19782 1.04695,8.07827 9.73717,11.34493 16.21343,13.65363 6.10462,1.83984 12.42948,2.46724 18.75479,2.92444 0,0 23.89546,-17.16253 23.89546,-17.16253 v 0 c -6.22718,-0.23063 -12.46761,-0.604 -18.54037,-2.12967 -4.36135,-1.31911 -9.75012,-2.58235 -12.65366,-6.54175 -3.43301,-4.68143 -0.0258,-10.23422 1.85845,-14.66034 3.39211,-6.20025 4.37494,-8.36612 8.53522,-14.34458 6.12841,-8.80672 13.55934,-16.54165 20.33124,-24.82893 0,0 -27.37486,11.97742 -27.37486,11.97742 z" />
    <path
       style="fill:#280b0b"
       id="path896"
       d="m 689.41968,884.53088 c 7.10517,29.88327 7.91125,60.83153 9.60531,91.37714 0.60637,3.5583 0.24785,7.42524 1.81912,10.67491 2.82204,5.83649 8.76156,2.86704 12.36985,0.64306 10.54715,-6.50077 20.92703,-13.31814 30.81587,-20.78226 25.16358,-18.99355 -11.24506,2.91597 12.52962,-10.75134 -6.31017,4.52342 -14.39038,7.2721 -18.93051,13.57025 -1.44829,2.00909 4.40038,2.3776 6.23442,4.04201 7.88012,7.1513 13.03916,17.07452 18.32333,26.12033 0,0 24.3808,-14.12786 24.3808,-14.12786 v 0 c -5.66854,-9.24363 -11.02071,-19.34419 -18.53721,-27.27495 -2.0971,-2.21269 -4.00978,-6.52809 -6.99198,-5.89545 -11.1709,2.36978 -20.84166,9.34048 -31.26249,14.01072 -5.77746,4.23963 -16.35025,11.66518 -12.03517,11.15187 6.49152,-0.7722 11.54773,-6.36302 17.8324,-8.16271 2.28892,-0.65547 -3.25313,3.69918 -5.45008,4.61687 -6.85631,2.86397 -6.30006,-7.36872 -7.07493,-10.2886 -2.63191,-30.90961 -3.68396,-61.95218 -7.47397,-92.75719 0,0 -26.15438,13.8332 -26.15438,13.8332 z" />
    <path
       style="fill:#280b0b"
       id="path898"
       d="m 793.79679,980.67028 c 9.5753,-2.03263 18.73297,-5.67087 27.73615,-9.4333 3.38171,-1.41322 6.86174,-2.64412 10.06784,-4.42009 32.28283,-17.88255 24.61094,-9.67134 36.45876,-24.37749 0.12192,-1.74119 0.86619,-3.55139 0.36575,-5.22357 -1.73238,-5.7886 -9.96365,-8.53159 -15.11107,-6.02317 -29.77331,14.509 -24.43574,9.49146 -36.24474,24.08131 -7.34118,11.14658 -11.98963,24.63134 -8.94938,38.08147 0.46902,2.07493 1.43294,4.00599 2.14941,6.00898 1.59771,1.64058 2.80501,3.78528 4.79313,4.92178 6.10713,3.491 14.22441,3.622 20.881,3.5112 12.23139,-0.2036 23.97111,-2.8782 35.77901,-5.7458 3.02356,-0.9348 6.04711,-1.8696 9.07067,-2.80432 0,0 22.38252,-17.36252 22.38252,-17.36252 v 0 c -3.071,1.04709 -6.14199,2.09418 -9.21298,3.14127 -11.66302,3.13454 -23.19171,6.00785 -35.34405,6.4367 -5.07824,0.17921 -13.77554,0.14599 -18.84502,-2.34812 -1.67962,-0.82635 -2.73797,-2.55331 -4.10696,-3.82997 -0.66025,-1.77309 -1.5623,-3.47409 -1.98076,-5.31926 -2.91591,-12.85749 2.32221,-25.57903 9.77807,-35.79348 9.06777,-9.11889 12.24252,-11.22745 -13.23221,4.55945 -1.66409,1.03126 3.58411,-1.81631 5.53657,-1.95979 1.47967,-0.10874 5.79685,1.32509 6.3324,3.46015 0.28712,1.14467 -0.45806,2.31538 -0.68709,3.47306 -6.3429,6.78729 -12.32642,12.22859 12.16688,-4.31011 3.05285,-2.06139 -6.6834,3.10244 -10.06924,4.55341 -6.39733,2.74151 -13.1163,5.42185 -19.7965,7.44242 -1.96836,0.59537 -3.99887,0.96157 -5.9983,1.44236 0,0 -23.91986,17.83743 -23.91986,17.83743 z" />
    <path
       style="fill:#280b0b"
       id="path900"
       d="m 898.822,954.14443 c 1.4834,13.51224 1.94627,27.11022 3.05446,40.65956 1.34279,10.73061 1.18623,21.63611 2.64899,32.35111 0.60064,4.3999 1.42552,7.5873 2.40573,11.8276 0.36277,1.0395 0.72554,2.0791 1.08831,3.1186 0,0 25.84877,-14.482 25.84877,-14.482 v 0 c -0.42044,-0.8419 -0.84088,-1.6838 -1.26132,-2.5258 -3.85867,-14.1506 -3.97501,-28.83695 -5.57881,-43.34975 -0.99918,-13.79466 -0.98478,-27.61276 -1.8148,-41.41633 0,0 -26.39133,13.81701 -26.39133,13.81701 z" />
    <path
       style="fill:#280b0b"
       id="path902"
       d="m 916.80326,909.71834 c -0.097,1.00753 -0.56851,4.16458 -0.009,5.18987 1.68557,3.08806 4.35794,2.85089 7.33015,1.00723 30.44938,-18.8878 23.94985,-12.43776 37.5164,-29.63627 9.49831,-12.58441 18.571,-25.63731 29.65439,-36.91259 0,0 -27.17074,11.37217 -27.17074,11.37217 v 0 c -10.14827,11.58393 -18.69699,24.43977 -28.24344,36.5049 -13.7165,16.02365 -7.62569,6.4442 11.06117,0.21864 5.78074,-1.92586 -3.65169,3.83495 -3.70096,3.75526 -0.43386,-0.70169 0.323,-4.32712 0.38158,-4.68856 0,0 -26.81968,13.18935 -26.81968,13.18935 z" />
    <path
       style="fill:#280b0b"
       id="path904"
       d="m 614.91194,858.5976 c 2.68966,-3.59401 4.15967,-8.2643 7.56231,-11.33218 0.64707,-0.58341 3.10818,-1.57048 2.35856,-1.12646 -8.15982,4.83332 -16.35333,9.60953 -24.53,14.4143 0.10176,1.59214 -0.0161,3.18716 -0.10119,4.77654 0,0 26.6166,-13.43726 26.6166,-13.43726 v 0 c 0.0499,-2.23246 0.16996,-4.4258 -0.68723,-6.55029 -11.63184,-17.06815 -32.43078,16.39899 -38.59391,25.23277 0,0 27.37486,-11.97742 27.37486,-11.97742 z" />
    <path
       style="fill:#280b0b"
       id="path906"
       d="m 1035.5517,895.60753 c 1.8909,29.07139 1.5288,58.24632 1.1196,87.36068 0,3.95961 0,7.91922 0,11.87883 0,0 24.8394,-12.72273 24.8394,-12.72273 v 0 c -0.1644,-3.85428 -0.3289,-7.70856 -0.4933,-11.56284 -0.4206,-29.49607 -0.7255,-59.04578 1.1197,-88.50172 0,0 -26.589,13.54778 -26.589,13.54778 z" />
    <path
       style="fill:#280b0b"
       id="path908"
       d="m 1051.5266,882.38473 c 14.1429,10.14197 26.5824,22.33977 39.3831,34.05597 19.0447,7.66302 37.0587,-12.84157 47.6761,-26.89533 2.6277,-3.47807 4.5438,-7.53352 7.5988,-10.64294 1.9199,-1.95412 8.8716,-6.28206 7.0339,-4.25043 -6.3264,6.99404 -13.7779,12.88139 -20.6668,19.32209 1.7334,5.31615 3.7718,10.54238 5.2003,15.94845 3.1887,12.06734 6.0948,29.43059 8.1961,41.71544 7.0457,41.19235 -0.5394,-1.6259 5.6153,32.82433 0,0 24.1312,-12.92113 24.1312,-12.92113 v 0 c -7.1824,-30.51934 -11.1607,-61.65011 -18.5606,-92.11728 -14.4099,2.70588 -27.0256,-0.0219 -36.3238,10.45846 -2.8735,3.23892 -4.9563,7.11406 -7.7263,10.44201 -2.7673,3.32477 -13.1381,8.85445 -8.8583,9.48359 6.285,0.92393 12.1374,-4.38985 17.1741,-8.26113 1.5973,-1.2277 -4.0242,-0.19968 -6.0363,-0.29951 -13.1719,-11.23691 -25.8995,-23.00781 -38.8091,-34.54482 0,0 -25.0277,15.68223 -25.0277,15.68223 z" />
    <path
       style="fill:#280b0b"
       id="path910"
       d="m 1194.4,925.33936 c 3.6496,7.95718 5.9286,16.43524 9.1029,24.57283 0.6841,1.75388 1.2206,3.59483 2.2051,5.19949 0.812,1.32358 2.0745,2.31117 3.1117,3.46676 1.4867,0.44042 2.9095,1.309 4.46,1.32128 1.79,0.0142 3.6448,-0.40166 5.224,-1.24461 20.3707,-10.87337 29.5656,-14.75916 42.0003,-30.08611 3.7302,-5.82186 6.3905,-13.0525 3.1398,-19.84945 -2.2441,-4.69241 -6.0821,-7.34765 -9.8473,-10.69905 -5.9647,-4.91004 -12.8118,-8.28604 -19.7535,-11.52387 0,0 -24.0227,15.95768 -24.0227,15.95768 v 0 c 6.8282,2.90846 13.5568,5.94247 19.3564,10.70431 2.8368,2.59575 6.8546,5.57976 8.5035,9.35068 2.7161,6.21139 -0.7392,12.55 -4.2486,17.47084 -3.0355,3.51355 -3.9255,4.77363 -7.53,7.9334 -1.5534,1.36176 -6.7171,4.74077 -4.8486,3.85985 6.9749,-3.28827 13.5275,-7.40633 20.2778,-11.13387 1.3939,-0.7697 -2.6984,1.75437 -4.2082,2.26021 -1.0894,0.36499 -2.289,0.20008 -3.4336,0.30013 -0.9323,-0.79569 -2.0977,-1.3804 -2.7969,-2.38707 -1.0366,-1.49235 -1.5932,-3.26842 -2.2955,-4.94426 -3.3813,-8.06864 -5.7993,-16.52869 -8.3214,-24.8899 0,0 -26.0752,14.36073 -26.0752,14.36073 z" />
    <path
       style="fill:#280b0b"
       id="path912"
       d="m 1263.3343,895.89006 c 8.6162,11.66024 14.6298,24.99013 21.1066,37.89136 1.7315,3.44894 3.0541,7.14134 5.2286,10.32959 1.7635,2.58573 4.3081,4.54132 6.4622,6.81197 2.8804,0.70368 5.6761,2.10632 8.6412,2.11104 5.7478,0.009 13.1338,-3.47365 17.8877,-6.2884 23.4032,-13.85701 28.6019,-14.29862 41.3498,-30.91813 0.6515,-1.93093 1.7486,-3.76535 1.9545,-5.79279 1.0823,-10.65613 -10.522,-16.2989 -18.4868,-19.68864 -7.4909,-2.70706 -15.2652,-4.41638 -23.1399,-2.69264 -11.2109,5.25015 -26.0804,9.31296 -32.0106,20.30849 -1.7864,3.31212 -1.9937,7.34127 -2.5089,10.9812 -0.522,5.186 -0.3061,2.63609 -0.6561,7.64898 0,0 26.3918,-13.21152 26.3918,-13.21152 v 0 c 0.3526,-4.83962 0.1194,-2.38251 0.7111,-7.37024 0.5247,-2.74305 0.7184,-4.71337 1.895,-7.26122 0.392,-0.84883 0.9256,-1.63387 1.5097,-2.36396 0.5454,-0.68181 2.6308,-2.25315 1.8583,-1.8461 -19.1992,10.11698 -30.7283,18.53014 -20.6434,11.28609 7.3109,-3.13469 14.9774,-1.44322 22.3725,0.74958 6.3351,2.35668 18.0789,6.69095 16.3155,15.72096 -0.3406,1.7439 -1.4061,3.26369 -2.1091,4.89554 -1.4005,1.72532 -2.6888,3.54801 -4.2014,5.17597 -1.7764,1.91207 -8.1509,6.16026 -5.6469,5.42392 6.1648,-1.81291 11.3211,-6.09848 17.1486,-8.80625 2.8413,-1.32024 -5.3289,3.32895 -8.1758,4.637 -2.7071,1.24377 -5.4758,2.55143 -8.4225,2.98922 -2.5782,0.38304 -5.1987,-0.38623 -7.798,-0.57934 -2.1467,-1.93007 -4.7119,-3.47782 -6.44,-5.7902 -2.2979,-3.07487 -3.6965,-6.72962 -5.4631,-10.1376 -6.7248,-12.97302 -12.6216,-26.3512 -19.3502,-39.32046 0,0 -25.7804,15.10658 -25.7804,15.10658 z" />
    <path
       style="fill:#280b0b"
       id="path914"
       d="m 1410.0608,868.80736 c -2.2561,0.691 3.4682,-4.80592 2.0467,-4.18265 -9.5246,4.17607 -19.3128,8.01951 -28.0509,13.6589 -1.6768,1.08216 -1.2539,3.78937 -1.9069,5.67518 -6.7727,19.55984 0.4428,-1.85527 -7.1177,20.81236 -2.2958,8.92539 -11.7424,27.91327 -4.6104,36.53817 2.9429,3.55891 6.867,3.82319 10.9286,4.81573 1.7276,0.50124 3.6552,0.55387 5.1828,1.50372 6.7949,4.22487 5.4755,14.24437 5.5644,20.80179 0,0 25.2082,-12.89603 25.2082,-12.89603 v 0 c -0.1533,-8.11289 0.8932,-18.74287 -6.6964,-24.31805 -1.5219,-1.11797 -3.589,-1.17603 -5.3835,-1.76404 -2.4558,-0.31583 -7.3503,-0.46153 -9.4525,-2.47652 -6.8318,-6.54826 2.5513,-26.97475 4.4359,-33.9807 3.3486,-9.09849 4.4566,-12.64731 8.2866,-21.17353 0.8769,-1.95225 4.9541,-6.19211 2.8606,-5.74798 -24.0898,5.11036 -22.9164,3.55931 -28.5419,15.06078 0,0 27.2464,-12.32713 27.2464,-12.32713 z" />
    <path
       style="fill:#280b0b"
       id="path916"
       d="m 1455.8312,904.66807 c 8.3949,-6.10093 16.7128,-12.31782 24.7765,-18.8534 5.0345,-4.08038 10.5041,-8.39771 14.6272,-13.49654 1.405,-1.73749 2.3774,-3.78418 3.5661,-5.67627 1.5143,-4.29097 1.8803,-10.58987 -3.1888,-12.90325 -0.8344,-0.38077 -1.941,-0.93672 -2.7152,-0.44505 -9.3057,5.90983 -17.9285,12.83211 -26.8927,19.24817 -2.9082,18.01342 -3.4815,36.3761 -3.7014,54.59961 0.7561,2.28673 0.6061,5.11717 2.2682,6.86017 7.8498,8.23174 26.1344,-2.65822 33.4579,-6.5558 0,0 22.0332,-17.77265 22.0332,-17.77265 v 0 c -7.6165,4.36226 -15.7325,9.56105 -24.6683,10.73883 -1.8292,0.24109 -4.0938,0.79058 -5.5222,-0.37724 -1.6093,-1.31579 -1.4098,-3.91114 -2.1148,-5.86671 -0.268,-17.98135 0.157,-36.43811 4.9485,-53.86039 -7.7898,3.75751 -15.4259,7.85228 -23.3696,11.27253 -0.6497,0.27973 0.562,-1.4776 1.2204,-1.73599 0.5296,-0.20779 1.1486,0.26928 1.5837,0.63561 2.4176,2.03508 0.9794,5.51081 0.1275,7.81146 -1.1094,1.65132 -2.0413,3.43692 -3.3283,4.95395 -4.0087,4.72541 -9.4629,9.10553 -14.2233,12.92534 -8.5054,6.82481 -17.3018,13.30702 -26.466,19.22185 0,0 27.5814,-10.72423 27.5814,-10.72423 z" />
    <path
       style="fill:#280b0b"
       id="path918"
       d="m 572.39781,858.22291 c 1.80973,7.96199 3.0626,20.39419 9.30556,26.1262 1.34916,1.23874 3.08546,1.97455 4.62819,2.96182 1.90513,0.37063 3.81025,0.74125 5.71537,1.11187 0,0 23.80033,-16.85527 23.80033,-16.85527 v 0 c -1.66716,-0.0643 -3.33432,-0.1285 -5.00147,-0.19275 -1.36497,-0.67326 -2.89865,-1.07881 -4.0949,-2.01977 -5.85119,-4.6025 -7.34198,-17.6698 -7.76408,-24.67987 0,0 -26.589,13.54777 -26.589,13.54777 z" />
    <path
       style="fill:#280b0b"
       id="path920"
       d="m 576.55165,949.60753 c 1.18557,18.93409 0.89545,37.92418 0.60885,56.88167 0.0856,8.5669 -0.80427,17.1532 -0.16578,25.7044 0,0 26.19974,-13.5737 26.19974,-13.5737 v 0 c -0.50557,-8.3409 -0.40489,-16.7074 -0.66265,-25.058 -0.29428,-19.16503 -0.55043,-38.3591 0.60884,-57.50215 0,0 -26.589,13.54778 -26.589,13.54778 z" />
    <path
       style="fill:#280b0b"
       id="path922"
       d="m 531.99326,1165.6164 c 3.30915,-0.5785 6.63191,-1.0839 9.92746,-1.7355 5.96388,-1.179 11.89804,-2.5037 17.84706,-3.7556 7.40717,-1.529 14.80166,-3.1208 22.2215,-4.5872 22.77491,-4.5008 45.65606,-8.4816 68.50639,-12.5755 24.01091,-4.4012 12.59109,-2.2205 34.2682,-6.4961 0,0 21.56021,-16.3511 21.56021,-16.3511 v 0 c -22.32262,4.8872 -10.59003,2.4342 -35.21205,7.2905 -38.2732,7.1537 -76.55891,14.3596 -114.97647,20.67 0,0 -24.1423,17.5405 -24.1423,17.5405 z" />
    <path
       style="fill:#280b0b"
       id="path924"
       d="m 623.2089,1128.6708 c 5.11513,34.6821 11.14712,69.2299 16.93157,103.8077 5.24982,32.4539 -0.42411,-2.9803 4.00353,25.6515 0.47855,3.0946 0.70186,6.2454 1.49667,9.2742 0.55289,2.107 0.69876,4.8337 2.51927,6.0298 1.97156,1.2953 4.9777,1.3579 7.07183,0.2718 11.65862,-6.0465 22.15183,-14.115 33.22774,-21.1725 15.94967,-18.5521 29.55441,-38.9276 44.00784,-58.6224 2.95285,-4.0237 5.72523,-8.2005 9.0077,-11.9601 2.34797,-2.6893 5.21466,-4.8773 7.82199,-7.316 -5.84434,4.3485 -13.45368,7.01 -17.533,13.0453 -1.35103,1.9988 4.44252,2.0464 6.25941,3.6337 2.50929,2.1921 4.55154,4.8851 6.54661,7.5538 4.88918,6.5399 6.79247,11.0405 10.98147,17.9229 1.44015,2.3662 3.02221,4.643 4.53331,6.9645 1.33624,1.5786 2.48185,3.3408 4.00871,4.736 11.375,10.3937 30.80507,-10.0768 36.72242,-14.0321 1.02411,-0.6845 4.76646,-8.0645 5.22106,-8.9215 2.63444,-4.5564 3.62722,-10.2144 6.73777,-14.5208 0.82251,-1.1387 4.2329,-3.6524 3.02734,-2.9315 -24.29351,14.5285 -29.39244,11.5733 -16.44052,15.5065 8.57671,5.3045 15.77769,12.3616 22.86615,19.4445 1.40249,1.4014 2.63198,3.001 4.20884,4.2028 1.55541,1.1855 3.40219,1.9297 5.10328,2.8946 2.39296,0 4.84283,0.5302 7.17887,0.011 3.12838,-0.6949 6.11168,-2.0426 8.91963,-3.587 11.28597,-6.2071 22.39536,-12.7481 33.28592,-19.6254 2.98248,-1.8834 5.53488,-4.3749 8.2623,-6.6118 5.11471,-4.1948 7.60853,-6.4361 12.38201,-10.6154 0,0 -26.7375,10.8849 -26.7375,10.8849 v 0 c -4.28575,3.8379 -7.12982,6.4764 -11.77875,10.1816 -2.72834,2.1745 -11.69648,7.2561 -8.33115,6.3358 5.5434,-1.5158 10.18315,-5.3367 15.16359,-8.2041 2.56921,-1.4792 -5.1484,2.9976 -7.92499,4.0366 -1.92898,0.7217 -4.04117,0.7979 -6.06176,1.1969 -1.57264,-0.7077 -3.29273,-1.1522 -4.71792,-2.1233 -1.64609,-1.1215 -2.92855,-2.7008 -4.3739,-4.0714 -7.49509,-7.1074 -14.97038,-14.2503 -23.24479,-20.4694 -1.89161,-1.0312 -3.63876,-3.7981 -5.67482,-3.0937 -30.79079,10.6518 -28.35067,12.1289 -38.51671,33.043 -0.90398,1.4644 -1.69132,3.0075 -2.71192,4.3932 -0.93511,1.2695 -4.58317,4.1642 -3.13381,3.5433 7.65869,-3.2812 14.79442,-7.6718 22.10407,-11.6707 0.95357,-0.5217 -1.93368,1.273 -3.01978,1.2304 -3.41534,-0.1342 -5.85973,-3.6567 -7.86446,-5.6584 -1.59097,-2.1962 -3.29313,-4.3161 -4.77293,-6.5887 -5.7865,-8.8868 -10.26006,-19.1518 -17.84172,-26.7772 -2.14148,-2.1538 -4.32985,-6.2025 -7.27983,-5.4797 -11.31979,2.7736 -21.05465,10.0012 -31.58198,15.0018 -2.2889,2.4564 -4.7704,4.7464 -6.86669,7.369 -1.8318,2.2918 -17.91228,25.267 -18.6003,26.2248 -10.96834,15.2691 -22.06703,30.5716 -35.31261,43.9862 5.27646,-2.2895 10.40637,-4.9518 15.82939,-6.8685 1.80926,-0.6395 -3.05667,3.513 -4.90812,3.0085 -1.85382,-0.505 -2.11467,-3.2597 -2.71409,-5.0852 -0.95652,-2.913 -1.31409,-5.99 -1.91015,-8.9976 -1.6649,-8.4006 -3.00466,-16.8643 -4.87153,-25.226 -6.6592,-34.5236 -13.33714,-69.2881 -15.0517,-104.4672 0,0 -25.65286,13.3106 -25.65286,13.3106 z" />
    <path
       style="fill:#280b0b"
       id="path926"
       d="m 871.0975,1198.4631 c 15.65045,-6.9795 30.27692,-16.2362 44.01986,-26.4406 1.83017,-1.3589 9.92154,-7.292 11.59186,-9.7616 0.82501,-1.2198 0.75895,-2.8457 1.13842,-4.2686 -0.99809,-1.1574 -1.63133,-2.7808 -2.99428,-3.4724 -5.18309,-2.6299 -15.1701,0.1887 -19.86889,2.6896 -30.2688,16.1109 -23.09004,9.3895 -35.19015,22.3041 -1.75318,2.9544 -4.50231,5.6944 -2.71752,9.5857 1.97944,4.3157 7.86949,7.2489 11.76046,8.8271 7.59792,3.0817 18.11871,5.4306 25.86802,7.4025 21.02272,4.8055 10.52924,2.5103 31.47947,6.8901 0,0 22.21529,-15.458 22.21529,-15.458 v 0 c -20.84342,-4.2658 -10.46169,-1.952 -31.14519,-6.9418 -9.398,-2.577 -15.62854,-3.9085 -24.42247,-7.6049 -1.55395,-0.6532 -8.3469,-3.6431 -9.49236,-6.3809 -1.09633,-2.6204 2.18925,-5.8868 3.23877,-7.3697 8.40841,-7.3996 12.23353,-10.1959 -14.23931,6.5394 -2.01153,1.2716 4.30638,-2.049 6.55386,-2.8313 3.98045,-1.3856 6.75342,-1.9629 10.79845,-1.9528 0.49235,0 0.96359,0.2029 1.44538,0.3043 -0.40755,0.9066 -0.58221,1.9596 -1.22264,2.7198 -2.22525,2.6412 -8.85693,7.4909 -11.21964,9.2004 -2.51416,1.8191 -10.48402,6.5681 -7.64791,5.3086 4.72786,-2.0998 27.18735,-15.012 13.55814,-7.552 0,0 -23.50762,18.263 -23.50762,18.263 z" />
    <path
       style="fill:#280b0b"
       id="path928"
       d="m 1041.0262,1071.0335 c 10.0884,29.7777 16.2423,60.7337 22.3041,91.5319 3.1381,15.6016 6.3407,31.1823 9.0336,46.8678 0,0 25.0708,-13.3832 25.0708,-13.3832 v 0 c -3.3213,-15.4248 -6.7658,-30.823 -10.3929,-46.1791 -6.6884,-31.1094 -13.8167,-62.1217 -20.0805,-93.3203 0,0 -25.9351,14.4829 -25.9351,14.4829 z" />
    <path
       style="fill:#280b0b"
       id="path930"
       d="m 995.60101,1084.467 c 7.33569,0.2633 14.67899,0.3667 22.00719,0.7899 22.6433,1.3078 67.2732,4.8968 88.3304,6.6862 40.8454,3.4711 81.5629,7.609 122.268,12.4224 11.3062,1.8857 28.0827,3.2772 39.1251,9.1718 2.3002,1.2279 4.7036,3.1314 5.4226,5.6377 1.5892,5.5403 -16.6523,14.6178 -19.3196,16.1485 4.0521,-2.7261 13.4973,-3.4821 12.1565,-8.1782 -1.2794,-4.4811 -8.6826,3.3957 -13.0886,4.9136 -20.8325,7.1766 -42.557,11.1729 -64.0465,15.7936 -37.1369,8.3616 -74.762,14.0202 -112.6489,17.4925 -3.3758,0.1778 -6.7494,0.6617 -10.1275,0.5334 -8.2868,-0.3147 -8.5642,-2.0955 -2.551,-5.7639 2.2395,-1.3662 8.9309,-5.4485 6.896,-3.7928 -4.508,3.6678 -9.5797,6.5823 -14.3695,9.8735 14.467,-4.2828 29.5904,-9.1097 44.8916,-8.7672 8.808,0.1972 12.3681,1.5936 20.7807,3.7203 21.0047,7.7097 33.6279,21.5213 46.8351,38.8547 4.958,6.3817 9.099,13.3242 13.7053,19.9496 0,0 25.2905,-14.9768 25.2905,-14.9768 v 0 c -4.9925,-6.4138 -9.4512,-13.2264 -14.6751,-19.4663 -8.8225,-11.0819 -18.0452,-22.4452 -29.6563,-30.7877 -6.7016,-4.8151 -10.86,-6.2065 -18.322,-9.5203 -7.9264,-2.1559 -13.0183,-3.995 -21.3368,-4.3995 -15.423,-0.7498 -30.7027,4.2836 -45.4227,8.0298 -11.4621,5.9438 -23.0679,11.6182 -34.3862,17.8313 -2.5209,1.3838 -5.1023,2.8424 -7.0793,4.9308 -2.0924,2.2102 -4.802,7.2418 -0.6167,9.6624 2.1521,1.2446 4.8543,1.2563 7.3394,1.3249 3.5742,0.099 7.13,-0.5511 10.6949,-0.8267 38.2077,-4.2793 76.2197,-9.9398 113.8263,-18.0322 21.2817,-4.2159 42.6704,-7.981 63.3298,-14.7512 4.3917,-1.4392 8.926,-2.5718 13.0802,-4.5965 12.0869,-5.8912 23.6877,-12.7313 35.5316,-19.0969 5.0022,-3.1438 22.3115,-11.8303 17.5346,-21.1431 -1.4271,-2.7823 -4.4845,-4.5854 -7.3578,-5.819 -11.7264,-5.0348 -30.8955,-6.153 -42.3133,-7.5461 -41.5043,-3.6533 -83.0685,-6.7903 -124.5368,-10.8336 -51.1489,-4.9872 -37.9277,-3.9974 -83.9919,-9.8334 -6.6619,-0.844 -13.3364,-1.5869 -20.0045,-2.3803 0,0 -23.19479,16.7448 -23.19479,16.7448 z" />
    <path
       style="fill:#280b0b"
       id="path932"
       d="m 1185.8358,1169.7483 c 11.802,-2.3301 23.7501,-4.116 35.725,-5.2822 8.4067,-0.8187 20.1497,-1.77 28.7078,-0.7111 3.8193,0.4726 7.4834,1.8 11.2252,2.7 2.7984,1.9359 6.2668,3.1527 8.3952,5.8076 9.0039,11.2319 2.5238,33.4023 -4.6244,43.9418 -1.9962,2.9432 -4.848,5.2045 -7.272,7.8067 4.9133,-3.2155 11.46,-4.7759 14.7398,-9.6465 1.7725,-2.6321 -6.1995,1.5841 -9.3715,1.6744 -7.7188,0.2199 -15.4176,-3.0428 -20.2667,-9.089 -1.1454,-1.4281 -1.7771,-3.2011 -2.6657,-4.8016 -0.1005,-2.9339 -0.9098,-5.1323 1.7105,-7.3512 1.075,-0.9104 5.0364,-2.4731 3.8872,-1.6583 -6.6462,4.7123 -14.5595,7.7612 -20.4434,13.3967 -1.479,1.4166 4.1065,0.034 6.1364,0.3065 2.2339,0.2994 4.4096,0.9351 6.6145,1.4027 11.2664,3.578 21.9969,8.7363 33.8693,10.1607 2.6839,0.322 5.3984,0.2921 8.0975,0.4382 2.794,-0.3671 5.6611,-0.3678 8.3819,-1.1013 2.9048,-0.783 5.7573,-1.8951 8.3562,-3.4106 17.647,-10.2902 28.1515,-13.5921 38.3629,-27.5691 4.9354,-6.7556 5.9619,-10.1438 9.3206,-17.7042 3.0068,-4.5503 2.6942,-10.502 5.2312,-15.2336 0.4318,-0.8054 2.9605,-2.1428 2.2363,-1.5855 -8.0424,6.1891 -18.7091,9.943 -24.1927,18.4822 -2.4334,3.7894 2.8424,8.5507 4.0465,12.8903 1.801,6.4912 3.3103,13.0598 4.9655,19.5897 7.5471,30.361 12.9515,61.1705 18.7857,91.885 0,0 24.7233,-13.3429 24.7233,-13.3429 v 0 c -8.8009,-29.8074 -13.58,-60.6545 -20.446,-90.9332 -1.2865,-6.763 -2.5363,-13.533 -3.8596,-20.2888 -0.9114,-4.6527 1.7938,-12.9533 -2.8443,-13.936 -27.4938,-5.8252 -26.9505,2.5008 -31.4295,16.0085 -0.9149,2.7591 -1.9673,5.4708 -2.951,8.2062 -3.5294,7.3812 -4.4768,10.437 -9.6543,16.9119 -2.0408,2.5522 -9.9969,7.464 -6.7482,7.1113 6.1807,-0.6712 11.1357,-5.5337 16.753,-8.1977 5.033,-2.3869 -19.139,10.4559 -15.795,5.4563 -2.6032,-0.041 -5.218,0.1245 -7.8096,-0.1243 -11.8038,-1.1329 -22.5928,-6.3333 -33.6511,-10.1376 -0.8467,-0.2211 -11.8491,-3.3056 -13.1019,-2.8332 -10.529,3.9708 -20.3986,9.5396 -30.2905,14.904 -2.8671,1.5548 -4.3054,4.5808 -4.3648,7.7208 -0.033,1.7221 0.6273,3.3873 0.941,5.081 1.0971,1.7988 1.9445,3.776 3.2912,5.3963 5.4702,6.5817 13.5739,10.5539 22.1448,10.8921 3.3545,0.1324 6.9729,0.4033 10.0214,-1.0027 11.5534,-5.3286 22.1034,-12.6072 33.1551,-18.9108 2.2567,-2.8134 4.9222,-5.343 6.7702,-8.4403 7.3126,-12.2557 12.7173,-35.0736 2.9467,-47.4594 -2.3256,-2.9482 -6.1093,-4.3678 -9.1639,-6.5517 -3.959,-0.9841 -7.8321,-2.4215 -11.8768,-2.9522 -4.6346,-0.6081 -9.3424,-0.532 -14.016,-0.4451 -16.3356,0.3037 -32.5284,3.1452 -48.778,4.5357 0,0 -23.925,17.9935 -23.925,17.9935 z" />
    <path
       style="fill:#280b0b"
       id="path934"
       d="m 1302.4437,1084.7353 c 2.1953,5.3063 7.2905,8.3555 10.3631,12.936 2.3255,5.6226 2.839,14.1111 6.168,19.1179 2.7513,4.138 4.409,4.0742 8.7785,5.931 6.6799,0.7106 12.8461,-0.8959 18.6362,-4.2493 23.3725,-13.5366 25.4623,-12.0407 37.4592,-26.5613 0.4393,-0.6524 4.3533,-5.5935 3.5668,-7.3067 -2.2195,-4.8343 -9.7326,-5.5549 -13.6954,-5.8589 -7.2967,-0.5597 -25.9463,0.3693 -32.9387,0.6347 0,0 -21.6877,15.8747 -21.6877,15.8747 v 0 c 9.9635,-0.3272 21.2284,-1.0106 31.2572,-0.2103 2.6699,0.2131 5.2809,0.9056 7.9032,1.4507 0.8015,0.1666 2.0581,-0.079 2.3591,0.6827 0.868,2.1955 -4.3965,4.4924 -3.6058,6.0961 -9.7602,11.0026 -17.0798,12.6824 11.9478,-2.9054 1.9126,-1.027 -3.6712,2.3456 -5.6489,3.2408 -1.8949,0.8578 -3.8912,1.5053 -5.9133,1.9932 -1.7712,0.4274 -3.6106,0.4936 -5.4159,0.7404 -3.4543,-0.9177 -5.2831,-0.7235 -7.5024,-3.8615 -3.5377,-5.0022 -3.8062,-14.0528 -6.043,-19.7688 -0.5692,-0.9129 -1.0298,-1.9033 -1.7075,-2.7389 -0.337,-0.4154 -3.4329,-2.9652 -3.7895,-3.3229 -1.9239,-1.9299 -3.3847,-4.2389 -4.5031,-6.7113 0,0 -25.9879,14.7971 -25.9879,14.7971 z" />
    <path
       style="fill:#280b0b"
       id="path936"
       d="m 1421.8593,1088.7614 c 2.0229,28.0042 1.1579,56.1192 0.1497,84.1472 -0.4697,14.8301 -1.2269,29.6665 -3.5331,44.337 -1.507,12.7732 -1.764,25.6531 -2.228,38.4961 -0.3357,5.5592 -0.1375,3.1082 -0.5317,7.3577 0,0 26.5163,-13.4144 26.5163,-13.4144 v 0 c -0.1579,-4.0269 -0.092,-1.6875 -0.1386,-7.0198 0.2673,-12.8255 0.7306,-25.6812 2.7223,-38.3757 1.8458,-14.5066 1.4569,-29.1509 1.6014,-43.7436 0.3452,-28.445 0.5515,-56.9245 2.0307,-85.3323 0,0 -26.589,13.5478 -26.589,13.5478 z" />
    <path
       style="fill:#280b0b"
       id="path938"
       d="m 1420.8046,1059.9732 c 34.7275,39.8966 66.9269,81.8358 99.1644,123.7378 5.0706,6.7217 10.1784,13.4154 15.2117,20.1651 4.3919,5.8896 14.0756,18.6214 18.2784,26.0471 0.8495,1.5009 0.2571,5.5481 1.8295,4.8396 30.9608,-13.9512 30.3929,-12.6905 18.6211,-18.0289 -14.4269,-9.5669 -27.7059,-20.7712 -40.9634,-31.8757 -6.6956,-5.0091 -12.3523,-12.6184 -20.6205,-15.255 -2.3952,-0.7638 -4.9095,-1.086 -7.3642,-1.6289 -4.255,0.064 -8.5278,-0.2007 -12.765,0.1929 -10.627,0.987 -26.7251,4.3647 -36.9282,6.5267 -15.5105,3.2865 -30.802,6.9233 -46.4779,9.3283 -10.5435,0.1864 3.255,-2.981 2.4945,-2.1803 -3.1823,3.3502 -16.2971,8.2941 -11.7848,7.299 6.4004,-1.4114 11.7353,-5.8444 17.6822,-8.5995 11.6288,-5.3875 30.5494,-13.4436 42.3516,-18.5273 16.5326,-6.3258 32.83,-14.77 49.6561,-20.3561 2.5773,-0.8556 5.2274,-1.5844 7.9269,-1.8798 0.64,-0.07 2.0937,0.2779 1.7482,0.8212 -0.6968,1.0958 -2.2912,1.2228 -3.4368,1.8341 -2.0162,1.6351 -3.9587,3.3656 -6.0486,4.9053 -2.7454,2.0225 -5.5813,3.9221 -8.4455,5.7726 -3.1832,2.0567 -12.9519,7.8767 -9.6911,5.9454 23.7808,-14.0843 12.9178,-7.4907 2.2564,-2.8882 -3.955,1.7073 -8.0167,3.1564 -12.025,4.7345 -15.8395,6.1962 -32.2154,10.798 -48.535,15.5105 0,0 -22.2939,17.1998 -22.2939,17.1998 v 0 c 16.4211,-4.9843 32.95,-9.6614 49.0519,-15.633 7.7509,-2.909 15.974,-5.6879 23.3031,-9.6295 11.5705,-6.2226 22.9412,-12.8118 34.3101,-19.3955 4.7509,-2.7512 14.1738,-8.8319 18.5567,-12.3941 2.2609,-1.8375 4.2255,-4.0121 6.3383,-6.0181 0.4552,-2.0989 1.9873,-4.2411 1.3655,-6.2968 -1.0392,-3.4355 -8.1482,-1.1195 -12.8636,0.4994 -4.6768,1.6056 -9.1808,3.6767 -13.7512,5.5642 -12.1616,5.0227 -25.2223,10.6377 -37.2778,15.7786 -31.925,13.7259 -66.7147,26.5442 -95.2058,46.7038 -2.1727,1.5373 -4.0099,4.6622 -3.3601,7.2431 0.4421,1.7559 3.5849,0.5127 5.3773,0.769 16.0322,-2.964 31.8168,-6.8323 47.7648,-10.2021 10.3834,-2.1939 24.6727,-5.114 35.4582,-6.0538 3.8471,-0.3352 7.7229,-0.09 11.5843,-0.1345 2.2129,0.4591 4.4692,0.7438 6.6385,1.3773 8.1526,2.3809 13.917,9.5937 20.5345,14.4166 13.6546,10.7428 27.354,21.4274 40.9171,32.2864 11.8921,9.6893 7.635,8.7376 31.2074,-12.272 1.3691,-1.2203 -2.1277,-2.9899 -3.2666,-4.4275 -4.8865,-6.1686 -16.4672,-19.9398 -20.4982,-24.8327 -5.3813,-6.5318 -10.7184,-13.0998 -16.0775,-19.6497 -20.4541,-25.4477 -40.4924,-51.1527 -60.0056,-77.333 -9.3459,-12.5393 -20.0176,-26.8616 -28.7895,-40.1225 -1.8256,-2.7597 -3.4117,-5.6706 -5.1176,-8.506 0,0 -26.0353,14.6222 -26.0353,14.6222 z" />
    <path
       style="fill:#280b0b"
       id="path940"
       d="m 1454.4338,1241.6653 c 3.9391,-4.6443 6.0715,-6.9601 9.7795,-12.6989 6.2741,-9.7103 14.1947,-24.4482 19.3839,-34.2398 2.356,-4.4456 18.513,-35.8579 21.135,-40.9506 0,0 -23.5599,10.6389 -23.5599,10.6389 v 0 c -7.076,14.0646 -13.4175,27.0087 -21.0924,40.81 -8.4272,15.1542 -17.2087,30.6505 -29.0135,43.5023 -1.3534,1.4734 -2.9336,2.721 -4.4004,4.0815 0,0 27.7678,-11.1434 27.7678,-11.1434 z" />
    <path
       style="fill:#280b0b"
       id="path942"
       d="m 464.35385,498.44074 c 0.20363,9.04245 3.6432,17.60359 7.89289,25.45277 6.09437,8.5251 10.83814,8.65736 20.24106,5.30932 7.31707,-5.2553 29.21645,-11.63872 35.00317,-24.23273 1.14044,-2.48201 1.31886,-4.4088 1.82284,-7.08962 1.4717,-8.69691 1.18259,-14.22685 -3.17917,-21.92487 -4.6755,-5.74142 -11.2154,-7.73255 -18.31335,-8.43276 -1.18586,0.16862 -2.40533,0.17873 -3.55758,0.50586 -1.19174,0.33835 -2.34532,0.84321 -3.41217,1.47292 -15.792,9.3212 -26.76876,10.8069 -32.75555,25.14503 -0.23903,0.96418 -0.47806,1.92837 -0.71708,2.89256 0,0 26.82675,-12.69165 26.82675,-12.69165 v 0 c 0.30354,-0.83138 0.60708,-1.66275 0.91062,-2.49413 1.11441,-2.0636 1.37524,-2.80716 2.96254,-4.62844 0.69527,-0.79776 3.1962,-2.71702 2.25363,-2.23599 -7.63712,3.8975 -14.90629,8.48059 -22.4555,12.54575 -1.04294,0.56161 1.87951,-1.45899 2.91958,-2.02589 0.94582,-0.51553 2.00014,-0.8005 3.00021,-1.20076 6.2032,-0.0588 12.29369,1.24667 16.69853,5.93268 3.99904,6.95696 3.85704,12.11042 2.23238,19.91478 -0.83267,2.85018 -0.85945,3.71368 -2.38571,6.1769 -5.5913,9.02375 -28.79594,18.282 15.27492,-5.86195 -3.58354,1.70563 -9.05766,4.8585 -13.15857,2.87083 -1.79857,-0.87176 -3.51425,-3.19138 -4.73512,-4.60532 -4.27033,-7.43095 -7.46347,-15.66295 -6.69241,-24.38785 0,0 -26.67691,13.59256 -26.67691,13.59256 z" />
    <path
       style="fill:#280b0b"
       id="path944"
       d="m 562.46833,461.61449 c 8.05757,1.68845 15.33092,-1.60733 22.58627,-4.6859 3.72256,-1.55567 7.33392,-3.35661 10.95982,-5.12069 0,0 23.05493,-18.39832 23.05493,-18.39832 v 0 c -3.65887,1.77419 -7.23556,3.71131 -10.97921,5.30647 -6.66522,2.91517 -13.60512,7.18843 -21.1157,5.70479 0,0 -24.50611,17.19365 -24.50611,17.19365 z" />
    <path
       style="fill:#280b0b"
       id="path946"
       d="m 672.08177,461.77675 c 19.84508,5.20058 38.58986,13.96673 56.99543,22.88978 9.38104,4.481 4.92219,2.31825 13.38348,6.47398 0,0 24.09385,-15.93609 24.09385,-15.93609 v 0 c -8.7982,-3.9615 -4.17285,-1.90724 -13.88254,-6.14815 -18.6244,-8.44146 -37.34016,-16.71023 -56.32977,-24.30082 0,0 -24.26045,17.0213 -24.26045,17.0213 z" />
    <path
       style="fill:#280b0b"
       id="path948"
       d="m 789.42942,623.36408 c 19.08621,-5.34601 30.92115,-20.83761 46.88523,-30.66593 -28.17752,11.42488 -27.40689,6.11749 -34.2811,26.59951 -1.80681,5.80005 -3.07824,10.66744 2.06926,14.89645 4.84456,2.49947 10.57826,1.04017 15.65692,2.66956 0,0 24.92812,-16.58476 24.92812,-16.58476 v 0 c -4.69935,-2.38786 -10.33559,-1.22675 -15.39593,-2.2218 -4.37136,-1.87391 -1.45781,-7.97847 -0.57915,-11.23791 1.31017,-3.57251 2.66845,-7.06704 4.58086,-10.37254 6.17008,-10.66463 14.99883,-9.61529 -24.78307,7.16565 -9.84341,7.59138 -39.96949,29.26279 4.27202,1.07145 0,0 -23.35316,18.68032 -23.35316,18.68032 z" />
    <path
       style="fill:#280b0b"
       id="path950"
       d="m 809.62218,690.07603 c 3.26775,0.62322 9.33578,0.46632 10.65515,4.46728 0.24879,0.75442 0.1228,1.58402 0.1842,2.37602 -3.20959,8.32942 -11.70221,12.54071 -16.5198,19.53848 0.11142,0.82442 -0.14276,1.79169 0.33427,2.47325 0.78922,1.1276 1.99783,1.94671 3.21242,2.5941 1.17777,0.62776 7.81186,2.21381 8.77708,2.45766 6.27015,1.58411 3.41967,0.8825 9.52589,2.34154 0,0 24.08136,-16.67782 24.08136,-16.67782 v 0 c -4.74698,-1.049 -9.38812,-2.3188 -14.08684,-3.55022 -1.12884,-0.29584 -2.258,-0.60634 -3.41002,-0.79253 -0.47564,-0.0769 -1.01522,0.22479 -1.44541,0.008 -0.19581,-0.0988 0.19958,-0.39058 0.29937,-0.58587 5.82011,-6.7562 13.92401,-12.25391 15.43167,-21.68058 -0.24932,-1.16219 -0.30258,-2.38454 -0.74795,-3.48659 -1.93881,-4.7975 -7.21928,-5.97659 -11.78529,-6.67617 0,0 -24.5061,17.19365 -24.5061,17.19365 z" />
    <path
       style="fill:#d40000"
       id="path952"
       d="m 969.77558,621.40092 c 0.99921,2.55292 2.22296,5.029 2.99763,7.65878 6.40621,21.74726 8.9057,44.6253 11.67985,67.03179 3.3855,27.34435 3.60471,31.31948 6.23164,58.20229 1.57177,14.89133 2.93105,28.99463 4.93292,43.78036 0.39672,2.9302 2.34342,17.88291 4.25232,22.50027 0.52146,1.26141 1.75736,2.08903 2.63606,3.13354 0,0 25.0614,-15.67052 25.0614,-15.67052 v 0 c -0.8713,-0.41504 -2.0874,-0.43624 -2.6139,-1.24512 -3.0939,-4.75362 -5.2506,-17.05615 -6.0094,-21.02815 -3.0031,-15.72152 -4.2248,-26.65024 -6.4225,-42.88616 -3.4367,-30.59308 -3.0687,-26.64354 -6.2924,-58.20077 -2.6519,-25.96016 -4.5984,-52.18171 -10.24181,-77.7123 0,0 -26.21181,14.43599 -26.21181,14.43599 z" />
    <path
       style="fill:#d40000"
       id="path987"
       d="m 953.83192,612.94732 c 2.39936,-0.31507 4.78408,-0.77568 7.1981,-0.9452 13.67984,-0.96063 22.15012,-0.59289 36.59058,-0.0122 24.4234,0.98209 48.6952,3.18018 73.0133,5.54877 7.924,0.85946 25.4587,2.7199 34.0706,3.7943 3.8625,0.48186 7.7528,0.82075 11.5684,1.59017 2.9022,0.58524 10.8917,2.0508 12.5626,6.18209 0.6797,1.68042 -0.3552,3.6079 -0.5327,5.41185 -1.6728,2.76375 -3.0152,5.75666 -5.0183,8.29124 -6.8671,8.68916 -15.1154,15.26431 -23.9187,21.93271 -15.895,12.04038 -32.9484,22.12067 -50.1564,32.11569 0,0 24.7125,-9.50451 24.7125,-9.50451 v 0 c 17.1551,-10.14252 34.1977,-20.35696 50.0382,-32.51673 8.5934,-6.59667 18.5445,-14.52891 25.0341,-23.52868 2.1798,-3.02295 3.3923,-6.63713 5.0885,-9.9557 -0.2182,-2.5229 0.4755,-5.30245 -0.6544,-7.5687 -2.3841,-4.78157 -10.2917,-6.25335 -14.422,-6.96873 -4.018,-0.69593 -8.1102,-0.86335 -12.1714,-1.23057 -11.7598,-1.06333 -23.5476,-1.80239 -35.3011,-2.9404 -24.2697,-2.06799 -48.5292,-4.0577 -72.8231,-5.81625 -6.9618,-0.50394 -13.9131,-1.16541 -20.88223,-1.55546 -5.91,-0.33077 -13.95597,-0.37657 -20.3008,-0.44281 0,0 -23.69575,18.11915 -23.69575,18.11915 z" />
    <path
       style="fill:#d40000"
       id="path989"
       d="m 1095.1261,745.2807 c 7.4755,-12.16871 13.5024,-25.14048 19.8212,-37.9248 1.845,-3.73273 3.4864,-7.5754 5.5645,-11.18349 1.3858,-2.40592 3.1989,-4.53893 4.7984,-6.80839 -7.1636,4.58122 -14.7478,8.56328 -21.4908,13.74367 -0.5917,0.45457 1.2984,0.83358 1.6882,1.46981 1.0056,1.64137 1.6905,3.46174 2.4236,5.24158 2.9113,7.0675 5.2333,14.41249 7.7774,21.6168 2.7306,6.16399 5.2511,15.97107 11.477,19.85406 0.9866,0.61536 2.139,0.91288 3.2084,1.36932 3.6716,0.22228 5.3914,0.79731 8.9687,-1.30905 10.313,-6.07246 20.7323,-12.06829 30.3149,-19.23814 2.4912,-1.86394 3.8106,-4.92971 5.488,-7.55011 5.7971,-9.05597 6.179,-11.19157 10.5655,-21.42782 6.9456,-20.485 1.7858,-4.93554 8.2699,-25.37015 1.1291,-3.55837 2.0065,-7.21116 3.4392,-10.65849 0.8896,-2.14053 5.5407,-7.09606 3.4904,-6.01473 -26.6095,14.03336 -26.0098,9.31918 -17.0437,23.435 7.5645,13.66481 11.7374,28.80625 17.8627,43.0791 1.7376,4.04882 5.472,14.97058 12.0418,16.11444 2.6254,0.4571 5.0612,-1.67041 7.5918,-2.50561 10.0847,-7.86266 21.1424,-14.61585 30.2542,-23.58798 1.4262,-1.40443 8.4421,-20.03429 9.4156,-21.94793 1.3058,-2.5666 7.4345,-8.29231 4.7685,-7.2037 -27.3565,11.17074 -24.6583,10.39581 -13.6297,16.37706 9.6768,9.47461 16.5188,21.24495 23.7869,32.54628 0,0 24.6753,-14.49502 24.6753,-14.49502 v 0 c -8.0845,-11.17645 -15.3508,-22.95497 -24.2741,-33.5059 -2.3052,-1.83831 -4.0839,-6.33643 -6.9156,-5.51491 -21.2115,6.15382 -27.044,9.06805 -33.7804,23.50773 -1.6141,3.46003 -2.7566,7.12587 -4.3415,10.5994 -1.6785,3.6786 -9.1709,9.27911 -5.4415,10.84135 5.7478,2.40772 11.8793,-3.77102 17.8189,-5.65653 -1.9339,1.66606 -3.2752,4.63472 -5.8018,4.99817 -6.6928,0.96276 -11.1192,-10.98863 -12.4231,-13.79583 -6.6155,-14.24294 -10.7121,-29.58988 -17.1202,-43.92396 -8.7185,-17.9358 -3.376,-15.30779 -33.7678,2.55568 -1.8907,1.11134 -1.82,3.99923 -2.5213,6.07726 -3.981,11.79608 -6.5627,24.0883 -11.5311,35.56268 -4.484,9.48424 -5.4772,12.80343 -11.4704,21.08769 -1.843,2.5475 -9.1739,7.78967 -6.0837,7.20875 7.0878,-1.33244 12.8699,-6.51307 19.3392,-9.70068 1.4086,-0.69408 -2.6814,1.67807 -4.1556,2.2192 -1.0433,0.38296 -2.196,0.34356 -3.2939,0.51533 -0.851,-0.14749 -1.7577,-0.10534 -2.5528,-0.44248 -5.6264,-2.38574 -9.2518,-13.11732 -11.481,-18.02088 -2.4876,-6.86656 -2.7347,-7.45996 -5.1394,-14.4646 -0.718,-2.09148 -3.7271,-11.47821 -5.0115,-13.73806 -0.9205,-1.61955 -1.7939,-4.96278 -3.5431,-4.32197 -10.0965,3.69882 -18.7108,10.6013 -28.0662,15.90194 -9.7224,16.91086 -16.4306,35.54238 -28.0344,51.39006 -1.0942,1.49436 -2.469,2.76151 -3.7034,4.14227 0,0 27.7678,-11.14342 27.7678,-11.14342 z" />
    <path
       style="fill:#d40000"
       id="path991"
       d="m 1297.698,688.90071 c -6.5736,13.55559 -11.4088,28.37833 -12.9789,43.39699 0.1574,1.79506 0.056,3.63192 0.4721,5.38516 2.3243,9.79388 12.1801,11.74985 20.639,13.32962 3.2195,0.35189 8.6777,1.10576 11.9552,0.84416 3.4558,-0.27582 9.5321,-1.72306 12.5521,-3.497 31.068,-18.24914 23.7068,-10.41268 35.9861,-26.1363 5.9249,-8.49673 7.9883,-18.32614 10.1948,-28.21909 0,0 -25.3665,12.19114 -25.3665,12.19114 v 0 c -2.4224,9.66829 -4.8206,19.12794 -11.0829,27.18476 -10.0235,11.30017 -8.9131,8.44843 12.9939,-2.94209 1.9039,-0.9899 -3.8415,1.93271 -5.8528,2.68054 -5.2096,1.93698 -6.2485,1.93808 -11.6899,1.70908 -1.9609,-0.0825 -3.9101,-0.34486 -5.8651,-0.51729 -6.9444,-1.06794 -16.5444,-1.8139 -18.547,-10.13224 -0.3732,-1.55054 -0.3044,-3.17511 -0.4567,-4.76266 1.4815,-14.86104 6.1339,-29.86799 14.397,-42.37656 0,0 -27.3504,11.86178 -27.3504,11.86178 z" />
    <path
       style="fill:#d40000"
       id="path993"
       d="m 1324.2,554.51767 c 4.0031,26.32223 8.525,52.54027 15.5593,78.25477 2.3261,8.50319 5.0457,16.89383 7.5685,25.34075 7.4114,21.15924 12.8022,43.06511 20.7407,64.04836 1.4823,3.91802 2.7445,8.02104 5.0972,11.487 1.194,1.75899 3.2344,4.48942 5.2035,3.68789 10.9625,-4.4624 20.3204,-12.14233 30.4806,-18.21349 5.0609,-8.56248 7.1018,-18.98311 11.4449,-27.78899 1.1143,-2.25933 6.4519,-7.27144 4.1105,-6.34196 -29.5352,11.72456 -25.4842,11.30912 -14.4796,13.70743 9.2016,5.38171 15.5942,14.00981 22.166,22.16319 1.2723,1.57857 2.4135,3.27431 3.8282,4.72675 1.1828,1.21444 2.6168,2.1559 3.9253,3.23386 21.4331,4.71138 34.7787,-16.69148 43.9955,-31.71792 1.4562,-2.37409 2.6978,-4.89393 4.3681,-7.1226 1.4011,-1.86947 3.199,-3.40562 4.7985,-5.10843 -36.3716,22.01785 -21.9674,10.04758 -11.2654,11.19461 2.6093,0.27966 5.0914,1.36591 7.7026,1.62768 1.3025,0.13058 2.6173,-0.0623 3.926,-0.0935 9.5632,-5.36421 19.4766,-10.14693 28.6895,-16.09264 1.252,-0.808 1.6397,-2.50469 2.2402,-3.86842 3.5209,-7.99642 3.3709,-16.85379 3.2708,-25.38306 -1.2634,-14.01077 -5.3482,-27.6266 -10.6021,-40.62459 -1.1981,-2.36815 -2.4972,-5.53225 -4.541,-7.41332 -1.4995,-1.38003 -4.9451,-3.27145 -7.1843,-2.14113 -27.0761,13.66795 -22.5496,9.93096 -34.3387,21.67496 -9.0938,9.59873 -15.8705,20.95167 -17.6569,34.22056 -0.395,2.9335 -0.3899,5.90707 -0.5848,8.8606 0.5221,11.46822 2.7481,23.68221 9.1819,33.48213 0.8287,1.26216 1.8852,2.35901 2.8277,3.53851 3.9843,3.5938 9.6513,5.16722 14.6089,2.30991 9.4249,-5.43199 18.6108,-11.26843 27.9162,-16.90265 0,0 -27.4149,11.03072 -27.4149,11.03072 v 0 c 7.5218,-4.18062 14.9956,-8.44893 22.5655,-12.54186 1.319,-0.71314 -2.367,2.47413 -6.3478,2.89625 -3.2408,0.34365 -3.4744,-0.3666 -6.1429,-1.93451 -8.5619,-9.54994 -11.3725,-22.0556 -11.692,-34.61809 0.2664,-2.83174 0.3103,-5.69334 0.7993,-8.49523 2.2493,-12.88754 9.5434,-23.81782 18.7497,-32.82434 10.6355,-9.07668 7.6881,-5.9647 -16.0848,7.07521 -0.9163,0.50262 1.8126,-1.20131 2.853,-1.30032 3.8839,-0.36964 5.5445,4.94156 7.0598,7.33706 5.4514,12.51578 9.5059,25.73684 10.3845,39.42998 -0.1069,6.67483 -0.174,13.22824 -2.503,19.59467 -0.5571,1.52279 -1.2148,3.03309 -2.1211,4.37768 -0.742,1.10084 -3.961,3.44008 -2.7628,2.86845 7.6927,-3.67004 14.9608,-8.17103 22.4412,-12.25655 -1.106,0.33275 -2.1633,0.96869 -3.3179,0.99825 -0.8115,0.0208 -7.4883,-1.791 -8.0113,-1.89329 -15.5901,-3.0491 -25.1328,8.1138 -39.2192,17.09246 -1.457,1.81508 -3.0445,3.53271 -4.3709,5.44524 -7.6634,11.04929 -0.7892,3.12805 -9.1497,14.43767 -1.6333,2.20945 -7.9532,6.97929 -5.2843,6.32617 6.2382,-1.5266 30.5039,-13.44962 16.9601,-9.14146 -1.2629,-0.84447 -2.6665,-1.50936 -3.7888,-2.53341 -1.4981,-1.36708 -2.6873,-3.03863 -4.0061,-4.57947 -7.1104,-8.30767 -13.8761,-17.1124 -22.8338,-23.55973 -2.179,-1.05947 -4.2838,-4.06932 -6.537,-3.17842 -10.5512,4.17191 -20.1231,10.65514 -29.2882,17.34359 -2.011,1.46763 -2.5001,4.31709 -3.5107,6.59238 -4.007,9.02138 -6.2549,18.89656 -12.4783,26.844 6.831,-2.92283 14.3283,-4.62091 20.4929,-8.7685 1.5272,-1.02747 -4.071,-0.0913 -5.3331,-1.43107 -2.7852,-2.95666 -4.3237,-6.90594 -6.0041,-10.60401 -2.5417,-5.5934 -4.5176,-11.42843 -6.6291,-17.19798 -6.9207,-18.91019 -9.0617,-26.25788 -15.4077,-45.9465 -2.359,-8.48606 -4.9407,-16.91334 -7.077,-25.45818 -6.5136,-26.0528 -10.9649,-52.87412 -11.3104,-79.76567 0,0 -26.6769,13.59257 -26.6769,13.59257 z" />
    <path
       style="fill:#d40000"
       id="path995"
       d="m 976.45479,324.46251 c 27.58161,1.27705 54.78161,-4.42706 81.71701,-9.56874 29.7106,-5.57755 58.3207,-15.09397 86.1107,-26.81222 7.7744,-3.21565 15.3616,-6.84222 22.7697,-10.82219 0,0 22.7898,-18.39616 22.7898,-18.39616 v 0 c -7.5955,4.37528 -15.4447,8.28833 -23.4934,11.76746 -28.0339,12.41731 -56.9871,22.55588 -87.17,28.38173 -25.7502,4.999 -52.2253,11.02083 -78.5815,7.90971 0,0 -24.14231,17.54041 -24.14231,17.54041 z" />
    <path
       style="fill:#d40000"
       id="path997"
       d="m 1030.0063,332.70861 c 1.3875,2.968 2.9337,5.86689 4.1625,8.904 15.0884,37.29115 24.2197,77.71106 33.6838,116.75862 4.5079,20.16761 9.5162,40.34652 11.4484,60.9673 0.075,1.45345 0.15,2.90691 0.225,4.36036 0,0 26.0651,-13.52448 26.0651,-13.52448 v 0 c -0.1411,-1.46356 -0.2822,-2.92712 -0.4232,-4.39068 -2.7655,-20.34342 -9.6499,-39.87708 -14.5642,-59.74304 -11.7995,-42.49989 -22.7911,-85.21304 -34.3855,-127.76807 0,0 -26.2119,14.43599 -26.2119,14.43599 z" />
    <path
       style="fill:#d40000"
       id="path999"
       d="m 1111.9648,468.6937 c -0.2263,-11.69167 -1.3124,-23.52217 0.193,-35.17242 0.3833,-2.96578 1.0538,-5.88732 1.5806,-8.83097 0.673,-2.57363 2.7907,-12.05655 4.7416,-14.58102 1.0379,-1.34306 5.6953,-3.65721 4.405,-2.55451 -6.2566,5.34667 -15.5115,8.05197 -19.3542,15.32966 -1.5714,2.97597 5.5548,3.84047 8.0254,6.12555 3.552,3.28522 6.6575,7.02237 9.9863,10.53355 9.9534,12.12933 19.1383,24.90225 27.4037,38.24149 1.9921,3.21499 4.1895,6.34219 5.7084,9.80593 1.0141,2.31241 1.2112,4.9026 1.8168,7.3539 0,0 25.1544,-13.77595 25.1544,-13.77595 v 0 c -0.9288,-2.54406 -1.5298,-5.23308 -2.7865,-7.63219 -1.7736,-3.38592 -4.1156,-6.44304 -6.2479,-9.61528 -8.8216,-13.12352 -18.1921,-25.87047 -27.6635,-38.52846 -3.1646,-3.75574 -6.1564,-7.66423 -9.4939,-11.26721 -2.5093,-2.709 -4.3502,-8.04255 -8.021,-7.64094 -11.2139,1.22693 -21.3649,7.34904 -31.6508,11.98143 -1.5545,0.70012 -2.6031,2.30938 -3.4127,3.8099 -1.7837,3.30632 -3.3944,11.55788 -4.1613,14.89335 -1.3454,8.2803 -1.8344,9.83608 -2.2516,18.24474 -0.4425,8.91995 0.2285,17.88988 -0.5168,26.80482 0,0 26.545,-13.52537 26.545,-13.52537 z" />
    <path
       style="fill:#d40000"
       id="path1001"
       d="m 1228.3268,446.33167 c 1.1761,-0.84412 2.4347,-1.58364 3.5281,-2.53238 8.5052,-7.37991 17.3608,-17.93088 23.3202,-27.47208 1.3652,-2.18573 2.4055,-4.55835 3.6082,-6.83752 0.9666,-2.75303 3.5024,-7.87825 2.1523,-11.21417 -1.4404,-3.55874 -6.0723,-4.87844 -9.3735,-3.11252 -30.4486,16.28753 -25.1084,11.27489 -37.72,28.22139 -7.2094,13.94669 -15.5415,29.58826 -12.2977,45.9306 1.9162,9.6539 4.7327,11.34947 10.6675,18.85556 3.6036,2.43898 6.9833,5.2471 10.8109,7.31695 19.2379,10.40323 43.2607,14.00361 64.8286,14.67398 5.4787,0.17028 10.9617,-0.1416 16.4426,-0.21239 4.8556,-0.47023 9.7112,-0.94045 14.5668,-1.41067 0,0 21.9189,-16.29443 21.9189,-16.29443 v 0 c -4.9027,0.60182 -9.8054,1.20364 -14.7081,1.80546 -5.5016,0.18407 -11.0007,0.63377 -16.5047,0.55221 -21.3047,-0.31573 -44.1818,-3.80263 -63.1765,-14.05542 -3.557,-1.92002 -6.7014,-4.52187 -10.0522,-6.7828 -5.4317,-6.81659 -8.1365,-8.47261 -9.8148,-17.29881 -3.0125,-15.84307 5.4808,-31.0743 13.1606,-44.12558 11.5963,-13.59474 9.9203,-9.37181 -11.3416,0.54491 -0.2554,0.11915 5.3349,-4.02086 6.4516,-1.36336 1.0728,2.55275 -1.5779,7.96494 -2.2352,9.73811 -1.1722,2.1306 -2.204,4.34461 -3.5164,6.39181 -7.3908,11.5289 -17.0857,22.04837 -28.5418,29.56878 0,0 27.8262,-10.88763 27.8262,-10.88763 z" />
    <path
       style="fill:#d40000"
       id="path1003"
       d="m 975.58709,410.89534 c 27.12871,-12.73193 52.73561,-28.57136 78.67841,-43.47819 2.4316,-1.39722 -4.8281,2.85482 -7.2421,4.28223 13.8457,-7.94996 28.196,-14.94429 42.5479,-21.91437 0,0 21.412,-17.09253 21.412,-17.09253 v 0 c -14.5544,7.12369 -29.1321,14.22241 -43.2265,22.23677 -12.826,7.36031 -25.652,14.72062 -38.478,22.08093 2.6266,-1.51453 10.5579,-5.96481 7.8797,-4.54359 -12.7239,6.75209 -24.9848,14.53256 -38.35693,19.99987 0,0 -23.21448,18.42888 -23.21448,18.42888 z" />
  </g>
</svg>
